<svg id="svg" version="1.1" xmlns="http://www.w3.org/2000/svg" xmlns:xlink="http://www.w3.org/1999/xlink" width="400" height="175.9765625" viewBox="0, 0, 400,175.9765625"><g id="svgg"><path id="path0" d="M205.978 12.319 C 205.978 18.465,206.000 20.979,206.027 17.906 C 206.054 14.833,206.054 9.804,206.027 6.731 C 206.000 3.658,205.978 6.172,205.978 12.319 M117.267 3.872 C 117.267 4.888,117.296 5.304,117.332 4.795 C 117.367 4.287,117.367 3.456,117.332 2.948 C 117.296 2.440,117.267 2.855,117.267 3.872 M226.548 5.807 C 226.548 6.727,226.578 7.103,226.614 6.643 C 226.650 6.183,226.650 5.431,226.614 4.971 C 226.578 4.512,226.548 4.888,226.548 5.807 M224.087 9.415 C 224.087 10.480,224.116 10.892,224.151 10.332 C 224.186 9.772,224.186 8.901,224.151 8.397 C 224.115 7.892,224.087 8.350,224.087 9.415 M117.283 8.667 C 117.236 8.788,117.219 12.490,117.244 16.894 L 117.290 24.901 117.378 16.674 C 117.426 12.149,117.444 8.447,117.416 8.447 C 117.389 8.447,117.329 8.546,117.283 8.667 M226.560 15.310 C 226.560 17.391,226.585 18.242,226.616 17.202 C 226.647 16.161,226.647 14.459,226.616 13.418 C 226.585 12.378,226.560 13.229,226.560 15.310 M125.249 12.622 C 125.561 12.660,126.116 12.661,126.481 12.623 C 126.846 12.585,126.590 12.553,125.913 12.552 C 125.235 12.551,124.937 12.583,125.249 12.622 M134.233 12.624 C 134.646 12.661,135.280 12.660,135.640 12.622 C 136.001 12.585,135.662 12.554,134.888 12.555 C 134.114 12.555,133.819 12.586,134.233 12.624 M198.203 15.222 C 198.204 15.706,198.238 15.883,198.279 15.616 C 198.319 15.348,198.318 14.952,198.276 14.736 C 198.234 14.519,198.201 14.738,198.203 15.222 M144.444 15.618 C 145.441 15.649,147.025 15.649,147.964 15.617 C 148.902 15.586,148.086 15.560,146.150 15.560 C 144.215 15.560,143.447 15.586,144.444 15.618 M145.667 25.289 C 145.884 25.331,146.241 25.331,146.458 25.289 C 146.676 25.247,146.498 25.213,146.062 25.213 C 145.627 25.213,145.449 25.247,145.667 25.289 M5.807 27.532 C 5.807 27.576,9.250 31.867,13.458 37.067 C 19.832 44.945,21.072 46.565,20.893 46.782 C 20.774 46.925,16.223 51.075,10.779 56.005 L 0.880 64.969 0.887 76.171 L 0.895 87.374 1.519 86.670 C 1.862 86.282,3.143 84.778,4.365 83.326 C 16.763 68.596,27.507 55.961,27.635 55.961 C 27.721 55.961,28.844 57.543,30.130 59.476 C 31.416 61.408,32.513 62.992,32.567 62.995 C 32.621 62.998,32.894 62.268,33.173 61.373 C 34.049 58.560,34.638 57.756,36.116 57.358 C 36.516 57.251,37.086 56.984,37.383 56.767 C 37.680 56.549,38.304 56.154,38.770 55.888 C 39.829 55.285,39.870 55.169,39.428 54.047 C 39.229 53.544,39.067 52.942,39.067 52.710 C 39.067 52.477,38.993 52.241,38.903 52.185 C 38.457 51.909,37.991 50.117,38.281 49.796 C 38.530 49.521,38.538 49.312,38.351 48.031 C 38.166 46.767,38.174 46.552,38.406 46.382 C 38.554 46.274,38.704 46.031,38.740 45.843 C 38.777 45.654,38.985 45.410,39.204 45.301 C 39.423 45.192,39.659 45.032,39.730 44.945 C 39.801 44.858,39.787 44.845,39.699 44.917 C 39.530 45.056,39.067 44.756,39.067 44.507 C 39.067 44.426,43.066 40.590,47.954 35.983 C 52.842 31.377,56.841 27.573,56.841 27.530 C 56.841 27.488,53.535 27.455,49.494 27.458 L 42.147 27.463 36.457 32.561 C 33.328 35.365,30.698 37.659,30.613 37.659 C 30.529 37.659,28.347 35.363,25.766 32.556 L 21.072 27.453 13.440 27.453 C 9.242 27.453,5.807 27.489,5.807 27.532 M264.055 48.920 C 264.056 67.171,264.087 69.597,264.320 69.614 C 264.471 69.625,264.490 69.602,264.365 69.560 C 264.192 69.502,264.136 65.136,264.100 48.865 L 264.054 28.245 264.055 48.920 M194.149 30.398 C 194.608 30.434,195.361 30.434,195.821 30.398 C 196.280 30.361,195.904 30.332,194.985 30.332 C 194.065 30.332,193.689 30.361,194.149 30.398 M129.125 48.526 C 131.084 48.554,134.292 48.554,136.252 48.526 C 138.212 48.498,136.608 48.474,132.688 48.474 C 128.768 48.474,127.165 48.498,129.125 48.526 M45.353 51.714 C 44.971 52.489,44.855 52.993,44.825 54.006 L 44.787 55.305 46.458 56.252 C 47.378 56.772,48.605 57.427,49.186 57.708 C 49.767 57.988,50.454 58.442,50.714 58.717 C 51.599 59.654,54.377 66.296,54.377 67.474 C 54.377 67.814,54.506 68.470,54.663 68.934 C 54.888 69.596,54.925 70.134,54.834 71.454 C 54.745 72.746,54.781 73.308,54.988 73.896 C 55.364 74.960,55.339 75.207,54.631 77.460 C 54.286 78.557,53.893 79.929,53.757 80.508 C 53.620 81.088,53.408 81.596,53.283 81.637 C 52.921 81.756,51.565 83.290,51.456 83.704 C 51.320 84.222,52.144 89.237,52.788 91.808 L 53.315 93.916 57.038 99.444 C 64.725 110.861,66.344 113.300,66.344 113.470 C 66.344 113.833,67.214 113.858,79.557 113.858 L 92.213 113.858 92.207 103.520 L 92.201 93.181 86.991 88.429 C 84.126 85.816,79.832 81.905,77.450 79.739 C 75.068 77.573,72.644 75.351,72.063 74.803 C 71.017 73.814,56.883 60.874,51.122 55.631 C 49.476 54.133,47.615 52.416,46.986 51.814 L 45.842 50.720 45.353 51.714 M320.985 61.296 C 320.985 61.326,321.243 61.583,321.557 61.868 L 322.129 62.385 321.612 61.813 C 321.131 61.279,320.985 61.160,320.985 61.296 M41.220 77.992 C 41.197 84.641,41.238 90.117,41.311 90.162 C 41.431 90.236,41.429 81.403,41.307 70.216 C 41.282 67.844,41.242 71.344,41.220 77.992 M277.783 68.925 C 277.396 68.957,275.495 69.106,273.559 69.257 C 260.522 70.269,243.519 74.386,223.669 81.338 C 220.911 82.304,216.753 83.752,214.430 84.555 C 210.408 85.946,204.191 88.188,197.427 90.687 C 191.008 93.059,185.068 95.612,177.927 99.070 C 165.235 105.216,158.098 105.345,145.974 99.651 C 134.848 94.425,134.777 94.419,126.082 97.864 C 124.109 98.646,121.284 99.914,119.805 100.683 C 116.016 102.651,113.758 103.731,111.219 104.790 C 110.009 105.294,107.859 106.195,106.442 106.792 C 105.024 107.389,102.982 108.109,101.902 108.393 C 97.894 109.444,96.130 111.229,95.940 114.424 C 95.749 117.624,100.396 117.706,105.368 114.590 C 107.048 113.537,108.856 112.616,111.974 111.228 C 113.252 110.659,115.842 109.446,117.730 108.533 C 129.638 102.774,136.002 102.304,146.728 106.392 C 160.187 111.522,163.197 111.502,177.773 106.185 C 186.115 103.143,187.342 102.694,191.201 101.275 C 204.424 96.414,204.326 96.441,225.341 91.685 C 257.171 84.482,266.823 83.894,280.158 88.344 C 289.696 91.527,311.084 103.630,324.270 113.306 L 325.530 114.231 328.493 114.731 C 336.943 116.158,346.268 116.828,362.868 117.203 C 379.150 117.570,386.862 118.336,393.835 120.278 C 398.642 121.616,401.346 117.734,396.959 115.793 C 396.082 115.405,395.696 115.351,388.737 114.642 C 359.633 111.677,350.912 109.124,323.537 95.554 C 310.985 89.332,309.124 88.205,291.333 76.046 C 288.429 74.062,284.847 71.621,283.372 70.623 L 280.690 68.808 279.588 68.837 C 278.982 68.854,278.170 68.893,277.783 68.925 M310.684 79.278 C 310.684 84.021,310.707 85.936,310.735 83.534 C 310.762 81.132,310.762 77.251,310.735 74.911 C 310.707 72.570,310.684 74.536,310.684 79.278 M369.424 72.239 C 369.426 72.626,369.462 72.764,369.504 72.545 C 369.546 72.326,369.545 72.010,369.501 71.841 C 369.457 71.673,369.422 71.852,369.424 72.239 M369.421 74.263 C 369.421 74.602,369.457 74.740,369.501 74.571 C 369.545 74.402,369.545 74.125,369.501 73.955 C 369.457 73.786,369.421 73.924,369.421 74.263 M318.409 77.431 C 318.409 78.350,318.439 78.726,318.475 78.267 C 318.511 77.807,318.511 77.055,318.475 76.595 C 318.439 76.135,318.409 76.511,318.409 77.431 M264.047 86.279 C 263.999 86.403,263.984 88.007,264.012 89.843 L 264.065 93.181 264.104 89.716 L 264.144 86.252 264.716 86.181 L 265.288 86.110 264.711 86.082 C 264.381 86.066,264.096 86.150,264.047 86.279 M256.298 89.837 C 256.298 91.579,256.324 92.268,256.356 91.368 C 256.388 90.468,256.388 89.043,256.356 88.201 C 256.324 87.359,256.298 88.095,256.298 89.837 M40.557 102.596 C 40.557 107.871,40.580 110.029,40.607 107.391 C 40.634 104.754,40.634 100.438,40.607 97.800 C 40.580 95.163,40.557 97.321,40.557 102.596 M341.971 94.275 C 342.237 94.315,342.673 94.315,342.939 94.275 C 343.205 94.234,342.987 94.201,342.455 94.201 C 341.923 94.201,341.705 94.234,341.971 94.275 M37.172 101.716 C 37.172 102.055,37.209 102.193,37.253 102.024 C 37.297 101.854,37.297 101.577,37.253 101.408 C 37.209 101.238,37.172 101.377,37.172 101.716 M176.241 141.839 C 176.241 159.696,176.262 167.002,176.287 158.073 C 176.312 149.144,176.312 134.534,176.287 125.605 C 176.262 116.676,176.241 123.982,176.241 141.839 M353.148 117.678 C 353.367 117.720,353.683 117.719,353.852 117.675 C 354.020 117.631,353.841 117.596,353.454 117.598 C 353.066 117.600,352.929 117.636,353.148 117.678 M359.308 117.857 C 359.624 117.897,360.099 117.896,360.364 117.856 C 360.628 117.815,360.370 117.783,359.789 117.784 C 359.208 117.785,358.992 117.818,359.308 117.857 M367.138 118.032 C 367.406 118.073,367.802 118.071,368.018 118.030 C 368.235 117.988,368.016 117.955,367.532 117.956 C 367.048 117.958,366.871 117.992,367.138 118.032 M372.591 118.203 C 372.761 118.247,373.038 118.247,373.207 118.203 C 373.377 118.159,373.238 118.123,372.899 118.123 C 372.560 118.123,372.422 118.159,372.591 118.203 M49.496 121.728 C 49.764 121.768,50.160 121.767,50.376 121.725 C 50.593 121.684,50.374 121.650,49.890 121.652 C 49.406 121.653,49.229 121.687,49.496 121.728 M41.597 123.977 C 41.597 125.042,41.626 125.455,41.661 124.895 C 41.696 124.335,41.696 123.463,41.661 122.959 C 41.625 122.454,41.596 122.912,41.597 123.977 M51.606 125.418 C 51.775 125.463,52.052 125.463,52.222 125.418 C 52.391 125.374,52.253 125.338,51.914 125.338 C 51.575 125.338,51.436 125.374,51.606 125.418 M41.612 135.240 C 41.612 139.402,41.635 141.079,41.663 138.967 C 41.691 136.856,41.691 133.451,41.663 131.400 C 41.635 129.350,41.612 131.078,41.612 135.240 M42.301 129.872 C 42.301 130.985,42.330 131.441,42.365 130.884 C 42.400 130.328,42.400 129.417,42.365 128.861 C 42.330 128.304,42.301 128.759,42.301 129.872 M373.547 130.708 C 376.274 130.735,380.788 130.735,383.577 130.708 C 386.367 130.681,384.136 130.659,378.619 130.659 C 373.102 130.659,370.819 130.681,373.547 130.708 M372.691 134.932 C 374.948 134.960,378.591 134.960,380.786 134.932 C 382.982 134.904,381.135 134.881,376.683 134.881 C 372.231 134.881,370.434 134.904,372.691 134.932 M35.020 141.891 L 35.107 146.150 35.155 142.027 C 35.181 139.759,35.142 137.843,35.067 137.768 C 34.993 137.694,34.971 139.549,35.020 141.891 M67.829 141.003 L 67.312 141.575 67.884 141.058 C 68.417 140.576,68.537 140.431,68.401 140.431 C 68.370 140.431,68.113 140.689,67.829 141.003 M35.020 155.425 C 34.971 159.461,34.992 162.703,35.066 162.629 C 35.139 162.555,35.179 159.253,35.154 155.291 L 35.108 148.086 35.020 155.425 M389.969 164.241 L 390.057 174.307 390.103 164.375 C 390.128 158.912,390.088 154.382,390.015 154.308 C 389.941 154.235,389.921 158.705,389.969 164.241 M46.154 155.037 C 46.154 155.473,46.189 155.651,46.231 155.433 C 46.273 155.216,46.273 154.859,46.231 154.641 C 46.189 154.424,46.154 154.602,46.154 155.037 M77.389 159.033 C 77.608 159.075,77.924 159.074,78.093 159.030 C 78.261 158.986,78.082 158.951,77.695 158.953 C 77.308 158.955,77.170 158.991,77.389 159.033 M37.132 160.020 C 37.132 160.050,37.389 160.308,37.703 160.592 L 38.275 161.109 37.759 160.537 C 37.277 160.004,37.132 159.884,37.132 160.020 M35.950 163.924 C 35.951 164.408,35.986 164.585,36.026 164.318 C 36.066 164.050,36.065 163.654,36.024 163.438 C 35.982 163.222,35.949 163.440,35.950 163.924 M63.566 167.916 C 63.530 170.076,63.516 170.150,63.132 170.223 L 62.736 170.300 63.138 170.324 C 63.689 170.356,63.724 170.185,63.660 167.786 L 63.604 165.684 63.566 167.916 M55.257 167.855 C 55.257 168.355,55.317 168.764,55.389 168.764 C 55.547 168.764,55.528 167.216,55.368 167.056 C 55.307 166.995,55.257 167.354,55.257 167.855 M64.833 167.772 C 64.783 167.903,64.766 168.478,64.797 169.047 L 64.853 170.084 64.939 168.807 C 65.024 167.527,65.004 167.326,64.833 167.772 M77.607 170.172 L 76.111 170.282 77.552 170.315 C 78.361 170.333,79.041 170.270,79.103 170.172 C 79.162 170.075,79.187 170.010,79.157 170.028 C 79.127 170.046,78.429 170.111,77.607 170.172 " stroke="none" fill="#fdd008" fill-rule="evenodd"></path><path id="path1" d="M159.167 1.272 C 159.120 1.395,159.102 6.445,159.127 12.495 L 159.173 23.493 168.148 23.493 L 177.123 23.493 177.123 21.029 L 177.123 18.566 171.449 18.519 L 165.775 18.473 165.730 9.808 L 165.684 1.144 162.469 1.096 C 159.992 1.059,159.233 1.099,159.167 1.272 M206.071 12.319 L 206.071 23.581 208.975 23.581 L 211.879 23.581 211.879 19.038 C 211.879 12.647,212.370 11.439,214.970 11.439 C 217.216 11.439,217.402 11.943,217.510 18.302 L 217.598 23.493 220.502 23.493 L 223.405 23.493 223.405 17.510 C 223.404 10.698,223.321 10.157,222.058 8.722 C 219.896 6.266,215.324 6.555,212.682 9.315 C 211.883 10.149,211.879 10.128,211.879 5.455 L 211.879 1.056 208.975 1.056 L 206.071 1.056 206.071 12.319 M178.795 3.080 L 178.795 4.936 181.742 4.888 L 184.690 4.839 184.690 3.080 L 184.690 1.320 181.742 1.272 L 178.795 1.223 178.795 3.080 M229.345 2.785 L 226.661 4.136 226.661 5.763 L 226.661 7.391 225.429 7.391 L 224.197 7.391 224.197 9.407 L 224.197 11.423 225.385 11.475 L 226.573 11.527 226.661 16.102 C 226.803 23.518,227.903 24.550,234.761 23.703 C 236.383 23.503,236.329 23.587,236.115 21.594 L 235.931 19.870 234.760 19.985 C 233.677 20.092,233.550 20.067,233.073 19.657 L 232.556 19.213 232.503 15.332 L 232.449 11.451 234.262 11.401 L 236.076 11.351 236.076 9.415 L 236.076 7.479 234.272 7.429 L 232.468 7.379 232.468 4.393 C 232.468 2.115,232.416 1.411,232.248 1.422 C 232.127 1.429,230.821 2.043,229.345 2.785 M131.544 1.762 C 128.484 2.184,127.233 3.853,127.233 7.511 L 127.233 8.447 126.279 8.447 C 124.734 8.447,124.769 8.397,124.769 10.570 L 124.769 12.478 125.957 12.530 L 127.145 12.582 127.191 18.698 L 127.237 24.813 130.227 24.813 L 133.216 24.813 133.216 18.761 C 133.216 11.835,133.020 12.495,135.084 12.495 L 136.395 12.495 136.345 10.515 L 136.296 8.535 134.736 8.484 L 133.176 8.433 133.249 7.291 C 133.358 5.580,133.807 5.191,135.679 5.191 L 137.077 5.191 137.244 4.399 C 137.336 3.964,137.464 3.241,137.530 2.794 L 137.649 1.980 136.092 1.866 C 135.236 1.804,134.100 1.722,133.568 1.684 C 133.036 1.647,132.125 1.682,131.544 1.762 M99.252 13.462 L 99.252 24.813 107.435 24.813 L 115.618 24.813 115.618 22.261 L 115.618 19.710 110.779 19.710 L 105.939 19.710 105.939 10.911 L 105.939 2.112 102.596 2.112 L 99.252 2.112 99.252 13.462 M117.378 3.960 L 117.378 5.807 120.282 5.807 L 123.185 5.807 123.185 3.960 L 123.185 2.112 120.282 2.112 L 117.378 2.112 117.378 3.960 M190.749 7.269 C 187.035 8.322,185.146 12.593,186.275 17.383 C 187.521 22.665,193.229 24.627,197.023 21.077 L 198.179 19.997 198.121 22.657 C 198.070 25.034,198.025 25.369,197.694 25.813 C 196.499 27.413,193.712 27.436,192.475 25.856 C 192.060 25.325,191.976 25.300,189.864 25.065 C 188.663 24.932,187.424 24.786,187.110 24.741 L 186.538 24.659 186.541 25.572 C 186.555 28.855,188.983 30.180,194.985 30.180 C 199.707 30.180,201.498 29.583,202.904 27.540 C 204.142 25.741,204.136 25.802,204.136 16.106 L 204.136 7.391 201.408 7.391 L 198.680 7.391 198.680 8.928 L 198.680 10.466 197.620 9.291 C 195.844 7.323,193.249 6.559,190.749 7.269 M178.837 15.438 L 178.883 23.493 181.786 23.493 L 184.690 23.493 184.690 15.486 L 184.690 7.479 181.740 7.431 L 178.791 7.383 178.837 15.438 M144.195 8.271 C 137.154 9.246,134.050 16.477,138.229 22.170 C 140.707 25.545,149.070 26.318,152.868 23.522 C 153.871 22.784,155.168 21.365,154.997 21.194 C 154.749 20.946,149.315 20.586,149.145 20.807 C 147.105 23.444,142.551 21.807,142.544 18.434 L 142.543 17.950 149.142 17.950 L 155.741 17.950 155.738 16.850 C 155.722 10.831,151.008 7.329,144.195 8.271 M117.500 8.560 C 117.433 8.627,117.378 12.311,117.378 16.747 L 117.378 24.813 120.283 24.813 L 123.189 24.813 123.143 16.674 L 123.097 8.535 120.359 8.487 C 118.853 8.460,117.566 8.493,117.500 8.560 M196.357 11.334 C 199.481 12.959,198.674 18.879,195.294 19.135 C 192.772 19.326,191.313 16.915,191.986 13.671 C 192.429 11.537,194.559 10.398,196.357 11.334 M148.009 11.818 C 148.846 12.288,149.547 13.577,149.621 14.782 L 149.670 15.574 146.150 15.574 L 142.631 15.574 142.576 15.104 C 142.263 12.394,145.524 10.421,148.009 11.818 M339.287 27.460 C 324.744 28.858,316.148 37.429,316.635 50.044 C 317.033 60.349,324.036 66.468,339.022 69.602 C 342.154 70.257,342.782 70.537,343.158 71.446 C 345.544 77.206,331.828 75.315,319.880 68.236 C 319.223 67.847,318.659 67.559,318.625 67.596 C 318.591 67.634,318.506 72.475,318.436 78.356 L 318.308 89.048 319.339 89.508 C 329.769 94.163,344.366 95.482,353.894 92.629 C 364.324 89.506,370.207 81.426,369.351 71.399 C 368.529 61.760,361.804 56.204,347.163 53.067 C 343.729 52.331,342.737 51.611,342.733 49.851 C 342.725 45.783,352.568 47.098,365.640 52.909 C 365.815 52.987,365.860 50.880,365.860 42.697 L 365.860 32.386 365.024 31.966 C 358.796 28.838,346.800 26.737,339.287 27.460 M99.252 60.714 L 99.252 93.095 112.407 93.050 L 125.561 93.005 125.606 81.170 L 125.651 69.336 132.777 69.336 L 139.903 69.336 139.903 81.214 L 139.903 93.093 153.014 93.093 L 166.124 93.093 166.124 60.713 L 166.124 28.333 153.015 28.333 L 139.906 28.333 139.861 38.407 L 139.815 48.482 132.732 48.528 L 125.649 48.574 125.649 38.453 L 125.649 28.333 112.451 28.333 L 99.252 28.333 99.252 60.714 M174.791 60.669 L 174.835 93.005 182.048 93.051 L 189.261 93.097 191.903 92.042 C 193.356 91.461,196.010 90.439,197.800 89.769 L 201.056 88.551 201.100 59.322 C 201.125 43.246,201.125 30.093,201.100 30.095 C 201.076 30.096,200.541 30.266,199.912 30.472 C 196.239 31.677,189.356 30.921,187.408 29.099 L 186.589 28.333 180.668 28.333 L 174.746 28.333 174.791 60.669 M209.767 56.841 C 209.767 72.521,209.799 85.350,209.839 85.350 C 209.879 85.350,213.343 84.153,217.538 82.690 C 234.335 76.833,243.479 74.084,255.829 71.182 C 256.047 71.131,256.225 70.971,256.225 70.828 C 256.225 70.601,254.936 70.568,246.194 70.568 L 236.164 70.568 236.164 49.450 L 236.164 28.333 222.965 28.333 L 209.767 28.333 209.767 56.841 M264.144 48.922 C 264.144 69.448,264.145 69.512,264.499 69.512 C 264.694 69.512,266.456 69.318,268.415 69.080 C 274.566 68.336,280.457 67.898,280.950 68.150 C 281.144 68.249,284.866 70.762,289.221 73.735 C 301.785 82.310,310.106 87.813,310.508 87.813 C 310.560 87.813,310.603 83.933,310.603 79.190 L 310.603 70.568 300.572 70.568 L 290.541 70.568 290.541 49.450 L 290.541 28.333 277.343 28.333 L 264.144 28.333 264.144 48.922 M39.683 45.028 C 39.199 45.297,38.774 45.668,38.739 45.852 C 38.703 46.035,38.554 46.274,38.406 46.382 C 38.174 46.552,38.166 46.767,38.351 48.031 C 38.538 49.312,38.530 49.521,38.281 49.796 C 37.991 50.117,38.457 51.909,38.903 52.185 C 38.993 52.241,39.067 52.477,39.067 52.710 C 39.067 52.942,39.229 53.544,39.428 54.047 C 39.870 55.169,39.829 55.285,38.770 55.888 C 38.304 56.154,37.680 56.549,37.383 56.767 C 37.086 56.984,36.516 57.251,36.116 57.358 C 35.287 57.582,34.416 58.249,34.063 58.931 C 33.452 60.114,32.204 64.419,32.033 65.938 C 31.933 66.828,31.772 67.764,31.676 68.017 C 31.356 68.857,31.501 70.273,32.179 72.943 C 32.832 75.514,33.142 76.343,34.051 77.942 C 34.316 78.408,34.492 78.995,34.492 79.412 C 34.492 79.970,34.612 80.226,35.108 80.722 C 35.447 81.060,35.724 81.487,35.724 81.669 C 35.724 82.087,34.928 85.895,34.479 87.627 C 34.293 88.347,34.140 89.462,34.140 90.106 C 34.140 90.750,34.022 91.666,33.878 92.141 C 33.734 92.616,33.615 93.236,33.614 93.518 C 33.613 93.801,33.377 94.909,33.089 95.982 C 32.802 97.055,32.287 99.540,31.945 101.505 C 31.603 103.471,31.205 105.307,31.061 105.586 C 30.917 105.865,30.847 106.220,30.907 106.375 C 30.979 106.563,30.798 106.845,30.364 107.222 C 29.748 107.756,29.702 107.869,29.533 109.283 C 29.325 111.025,29.391 110.883,28.190 112.189 C 26.864 113.632,27.525 113.568,13.383 113.631 C 3.778 113.675,0.955 113.736,0.848 113.905 C 0.687 114.157,0.651 174.580,0.811 174.997 C 0.908 175.249,5.103 175.275,46.565 175.275 L 92.213 175.275 92.213 144.591 L 92.213 113.908 76.189 113.822 L 60.165 113.737 59.427 113.039 C 59.021 112.655,58.390 112.123,58.025 111.856 C 56.956 111.074,56.744 110.638,57.025 109.788 C 57.218 109.203,57.219 108.979,57.031 108.520 C 56.490 107.202,55.209 101.129,55.406 100.815 C 55.552 100.581,55.536 100.383,55.341 100.010 C 55.200 99.739,55.082 99.239,55.080 98.900 C 55.077 98.488,54.815 97.850,54.287 96.972 C 53.802 96.166,53.498 95.449,53.498 95.113 C 53.498 94.811,53.222 93.491,52.886 92.179 C 52.182 89.432,51.310 84.261,51.456 83.704 C 51.565 83.290,52.921 81.756,53.283 81.637 C 53.408 81.596,53.620 81.088,53.757 80.508 C 53.893 79.929,54.286 78.557,54.631 77.460 C 55.339 75.207,55.364 74.960,54.988 73.896 C 54.781 73.308,54.745 72.746,54.834 71.454 C 54.925 70.134,54.888 69.596,54.663 68.934 C 54.506 68.470,54.377 67.814,54.377 67.474 C 54.377 66.296,51.599 59.654,50.714 58.717 C 50.454 58.442,49.767 57.988,49.186 57.708 C 48.605 57.427,47.378 56.772,46.458 56.252 L 44.787 55.305 44.829 53.951 C 44.863 52.874,44.962 52.444,45.313 51.844 C 45.761 51.080,45.906 49.916,45.579 49.714 C 45.482 49.654,45.402 49.115,45.402 48.516 C 45.400 45.721,42.078 43.695,39.683 45.028 M43.060 59.648 C 44.288 60.397,44.214 61.408,42.803 63.135 C 41.227 65.066,41.354 63.772,41.362 77.776 L 41.369 90.189 42.198 88.077 C 43.231 85.448,43.217 85.469,43.794 85.613 C 44.599 85.814,44.854 86.224,45.590 88.500 C 46.834 92.348,47.521 94.166,48.683 96.683 C 50.114 99.780,51.371 104.660,51.543 107.785 C 51.646 109.653,51.666 109.727,52.111 109.940 C 52.822 110.279,52.961 110.548,53.061 111.764 C 53.111 112.384,53.171 113.049,53.193 113.242 C 53.282 114.014,47.112 113.535,41.751 112.355 L 41.355 112.268 41.348 101.404 C 41.341 91.065,41.326 90.567,41.040 91.069 C 40.754 91.571,40.737 90.964,40.694 78.619 L 40.649 65.640 40.025 65.640 C 38.656 65.640,38.504 63.713,39.699 61.503 C 40.883 59.313,41.737 58.842,43.060 59.648 M264.144 89.661 L 264.144 93.093 276.561 93.093 C 283.390 93.093,288.937 93.026,288.886 92.943 C 288.746 92.718,283.671 90.404,281.544 89.597 C 276.909 87.837,269.108 86.230,265.207 86.230 L 264.144 86.230 264.144 89.661 M254.465 86.783 C 247.291 87.771,223.726 92.450,223.182 92.994 C 223.127 93.048,230.540 93.093,239.654 93.093 L 256.225 93.093 256.225 89.837 C 256.225 86.846,256.200 86.583,255.917 86.603 C 255.748 86.615,255.095 86.696,254.465 86.783 M40.651 102.596 C 40.651 108.302,40.585 112.118,40.486 112.180 C 40.234 112.335,34.544 112.684,34.228 112.563 C 33.912 112.442,34.210 111.672,34.744 111.228 C 34.896 111.102,35.020 110.817,35.020 110.594 C 35.020 110.372,35.265 109.577,35.565 108.828 C 36.157 107.349,36.884 104.195,37.136 102.017 C 37.244 101.078,37.492 100.207,37.925 99.248 C 38.273 98.479,38.719 97.353,38.917 96.747 C 39.616 94.606,40.328 92.914,40.489 93.013 C 40.585 93.073,40.651 96.992,40.651 102.596 M120.835 109.418 C 120.789 109.493,119.643 112.443,118.290 115.973 C 112.757 130.404,104.075 153.096,99.842 164.188 C 99.122 166.076,98.377 168.016,98.188 168.500 C 96.901 171.784,96.084 173.947,96.084 174.074 C 96.084 174.155,101.925 174.201,109.063 174.176 L 122.041 174.131 123.273 169.864 L 124.505 165.596 132.333 165.640 L 140.160 165.684 141.311 169.908 L 142.462 174.131 156.661 174.176 L 170.861 174.221 170.440 173.120 C 170.208 172.515,169.295 170.119,168.411 167.796 C 167.527 165.473,166.304 162.266,165.694 160.669 C 165.083 159.072,160.483 146.956,155.471 133.744 C 150.458 120.532,146.281 109.624,146.188 109.503 C 145.996 109.253,120.988 109.170,120.835 109.418 M176.331 141.750 L 176.331 174.219 199.561 174.219 L 222.792 174.219 222.747 163.000 L 222.701 151.782 212.627 151.736 L 202.553 151.691 202.508 130.531 L 202.464 109.371 189.397 109.326 L 176.331 109.281 176.331 141.750 M230.532 141.750 L 230.532 174.219 243.643 174.219 L 256.754 174.219 256.710 141.795 L 256.665 109.371 243.599 109.326 L 230.532 109.281 230.532 141.750 M262.338 109.388 C 262.280 109.446,262.302 109.664,262.388 109.872 C 262.474 110.080,263.388 112.468,264.419 115.178 C 266.232 119.943,267.837 124.142,268.894 126.881 C 269.363 128.098,272.557 136.439,274.790 142.279 C 275.740 144.762,277.855 150.292,280.276 156.621 C 281.817 160.648,284.058 166.509,285.760 170.963 L 286.970 174.131 299.509 174.131 L 312.048 174.131 312.464 173.075 C 312.692 172.495,313.998 169.089,315.365 165.508 C 316.733 161.927,318.669 156.859,319.669 154.245 C 323.596 143.983,324.229 142.328,325.593 138.759 C 326.370 136.727,327.477 133.836,328.053 132.336 C 328.629 130.836,329.448 128.698,329.872 127.585 C 330.297 126.472,331.128 124.294,331.720 122.745 C 332.311 121.197,333.107 119.142,333.489 118.180 C 334.301 116.138,334.388 116.267,332.015 115.983 C 331.030 115.865,329.105 115.581,327.738 115.350 L 325.251 114.932 322.329 112.809 C 320.722 111.642,318.918 110.371,318.321 109.985 L 317.235 109.283 314.278 109.283 L 311.322 109.283 310.948 110.559 C 310.743 111.260,310.310 112.706,309.986 113.770 C 309.662 114.835,308.793 117.765,308.054 120.282 C 307.315 122.798,306.561 125.332,306.379 125.913 C 306.197 126.494,305.441 129.028,304.699 131.544 C 301.001 144.083,301.017 144.035,300.604 144.095 C 300.393 144.126,300.220 144.112,300.220 144.065 C 300.220 143.987,299.239 140.458,295.272 126.265 C 293.071 118.391,290.853 110.435,290.759 110.075 C 290.543 109.252,291.107 109.283,276.383 109.283 C 268.716 109.283,262.396 109.330,262.338 109.388 M359.803 109.455 C 360.371 110.024,385.073 113.858,388.168 113.858 L 388.748 113.858 388.699 111.615 L 388.649 109.371 374.139 109.326 C 364.567 109.296,359.688 109.340,359.803 109.455 M342.357 117.256 C 342.313 117.371,342.297 130.255,342.322 145.886 L 342.367 174.307 366.170 174.352 L 389.972 174.396 389.927 164.321 L 389.881 154.245 379.190 154.200 L 368.500 154.155 368.500 151.958 L 368.500 149.762 376.639 149.716 L 384.778 149.670 384.824 142.325 L 384.870 134.979 376.729 134.934 L 368.588 134.888 368.588 132.776 L 368.588 130.664 378.663 130.619 L 388.737 130.573 388.737 125.208 C 388.737 122.256,388.678 119.840,388.605 119.838 C 388.533 119.837,387.839 119.723,387.064 119.586 C 381.016 118.516,377.714 118.315,356.445 117.729 C 350.210 117.557,344.252 117.288,343.018 117.123 C 342.664 117.076,342.405 117.127,342.357 117.256 M51.904 121.795 C 54.398 122.033,54.287 121.918,53.914 123.864 L 53.605 125.473 52.320 125.473 C 50.718 125.473,50.330 125.764,50.330 126.969 L 50.330 127.761 51.650 127.761 L 52.970 127.761 52.977 129.740 C 52.985 131.653,52.995 131.706,53.285 131.302 C 55.391 128.366,57.832 127.264,61.769 127.470 C 66.993 127.743,69.600 130.261,69.735 135.163 L 69.776 136.648 64.100 136.694 L 58.425 136.740 58.425 137.240 C 58.425 139.429,61.613 140.472,63.349 138.851 L 63.886 138.349 66.558 138.604 C 69.578 138.892,69.482 138.859,69.145 139.497 C 67.878 141.903,65.212 143.083,61.021 143.093 L 58.601 143.099 58.601 146.363 L 58.601 149.627 59.173 149.157 C 62.356 146.540,66.586 147.115,68.119 150.374 L 68.616 151.430 68.624 149.626 L 68.632 147.822 69.680 147.822 L 70.729 147.822 70.780 146.458 L 70.832 145.095 73.471 143.738 C 74.923 142.993,76.170 142.379,76.243 142.375 C 76.315 142.370,76.375 143.594,76.375 145.095 L 76.375 147.822 77.959 147.822 L 79.542 147.822 79.542 149.927 L 79.542 152.032 78.003 152.083 L 76.463 152.134 76.463 155.231 C 76.463 159.022,76.451 158.998,78.165 158.854 L 79.348 158.755 79.460 159.499 C 79.521 159.908,79.585 160.789,79.601 161.457 L 79.630 162.670 78.927 162.840 C 77.462 163.192,73.723 163.081,72.943 162.663 C 71.050 161.646,70.872 161.120,70.753 156.181 L 70.656 152.134 69.646 152.081 L 68.637 152.028 68.590 157.360 L 68.544 162.692 65.728 162.692 L 62.912 162.692 62.824 157.901 L 62.736 153.109 62.249 152.621 C 61.542 151.915,60.253 151.922,59.509 152.635 C 58.725 153.386,58.601 154.218,58.601 158.723 L 58.601 162.780 55.785 162.780 L 52.970 162.780 52.970 152.486 L 52.970 142.191 54.475 142.191 L 55.981 142.191 54.944 141.230 C 52.778 139.225,51.904 136.027,52.706 133.040 C 52.849 132.508,52.966 132.049,52.968 132.021 C 52.969 131.992,52.356 131.992,51.606 132.021 L 50.242 132.072 50.195 137.396 L 50.149 142.719 47.338 142.719 L 44.528 142.719 44.481 137.396 L 44.435 132.072 43.379 131.984 L 42.323 131.896 42.323 129.872 L 42.323 127.849 43.399 127.797 L 44.475 127.745 44.562 126.207 C 44.717 123.496,45.797 122.207,48.256 121.797 C 49.566 121.579,49.640 121.579,51.904 121.795 M26.749 129.869 L 26.749 137.609 30.928 137.656 L 35.108 137.703 35.155 141.883 L 35.202 146.062 32.302 146.062 L 29.402 146.062 29.351 144.435 L 29.300 142.807 24.769 142.760 L 20.238 142.713 20.238 132.421 L 20.238 122.129 23.493 122.129 L 26.749 122.129 26.749 129.869 M41.669 124.021 L 41.619 125.913 38.759 125.961 L 35.900 126.010 35.900 124.069 L 35.900 122.129 38.809 122.129 L 41.719 122.129 41.669 124.021 M41.707 135.240 L 41.707 142.719 38.803 142.719 L 35.900 142.719 35.900 135.240 L 35.900 127.761 38.803 127.761 L 41.707 127.761 41.707 135.240 M59.693 131.305 C 59.050 131.717,58.425 132.785,58.425 133.473 L 58.425 133.920 61.153 133.920 C 64.261 133.920,64.239 133.934,63.535 132.384 C 62.901 130.987,61.016 130.458,59.693 131.305 M134.158 141.971 C 135.010 145.818,135.749 149.144,135.800 149.362 L 135.894 149.758 132.531 149.758 C 130.682 149.758,129.168 149.691,129.168 149.610 C 129.168 149.380,130.182 144.652,130.679 142.565 C 130.924 141.536,131.272 139.982,131.454 139.111 C 132.066 136.168,132.364 134.976,132.487 134.976 C 132.555 134.976,133.307 138.124,134.158 141.971 M18.612 149.978 L 18.657 157.677 23.583 157.677 L 28.509 157.677 28.509 160.229 L 28.509 162.780 20.414 162.780 L 12.319 162.780 12.319 152.482 L 12.319 142.183 15.442 142.231 L 18.566 142.279 18.612 149.978 M43.887 147.867 C 44.263 147.978,44.987 148.449,45.495 148.913 C 46.644 149.963,46.634 149.964,46.634 148.790 L 46.634 147.822 49.282 147.822 L 51.930 147.822 51.878 156.049 L 51.826 164.276 51.333 165.280 C 50.177 167.634,48.303 168.567,44.435 168.717 C 38.888 168.932,36.248 167.514,35.944 164.157 C 35.834 162.942,35.553 163.009,39.032 163.411 C 40.469 163.576,41.472 163.771,41.516 163.893 C 41.878 164.908,43.583 165.495,44.752 165.006 C 45.792 164.571,46.105 163.861,46.106 161.930 L 46.106 160.287 45.447 160.806 C 41.621 163.812,36.484 161.553,35.694 156.516 C 34.720 150.301,38.519 146.290,43.887 147.867 M35.109 148.218 C 35.162 148.436,35.184 151.782,35.157 155.653 L 35.108 162.692 32.248 162.741 L 29.388 162.789 29.388 155.306 L 29.388 147.822 32.201 147.822 C 34.971 147.822,35.015 147.828,35.109 148.218 M42.485 152.015 C 40.880 153.025,40.853 156.878,42.444 157.849 C 44.316 158.990,46.106 157.616,46.106 155.040 C 46.106 152.469,44.241 150.911,42.485 152.015 M55.257 166.290 C 55.257 167.053,55.521 167.384,55.694 166.838 C 56.117 165.507,58.339 165.162,59.332 166.273 C 59.947 166.961,59.974 166.960,60.042 166.256 C 60.140 165.239,60.780 165.472,60.889 166.564 L 60.977 167.444 61.813 167.498 L 62.648 167.551 62.648 166.672 C 62.648 165.724,62.803 165.510,63.359 165.686 C 63.695 165.793,63.712 165.924,63.666 168.029 L 63.616 170.260 63.176 170.260 C 62.764 170.260,62.733 170.196,62.683 169.238 L 62.630 168.217 61.804 168.271 L 60.977 168.324 60.924 169.347 C 60.860 170.567,60.153 170.841,60.042 169.688 C 59.974 168.985,59.946 168.984,59.341 169.661 C 58.389 170.726,56.290 170.495,55.746 169.266 C 55.471 168.646,55.257 168.619,55.257 169.204 C 55.257 169.873,54.674 170.348,53.850 170.348 C 53.026 170.348,52.442 169.873,52.442 169.204 C 52.442 168.627,53.228 168.564,53.376 169.130 C 53.445 169.393,53.587 169.479,53.881 169.438 C 54.272 169.382,54.292 169.307,54.336 167.708 C 54.392 165.739,54.430 165.596,54.900 165.596 C 55.199 165.596,55.257 165.710,55.257 166.290 M65.167 166.168 C 65.401 166.483,65.821 167.136,66.100 167.620 L 66.608 168.500 66.696 167.092 C 66.775 165.831,66.821 165.684,67.136 165.684 C 67.468 165.684,67.491 165.818,67.537 168.028 L 67.586 170.372 67.109 170.316 C 66.729 170.271,66.469 169.994,65.828 168.951 L 65.024 167.642 64.979 168.599 C 64.911 170.017,64.803 170.348,64.405 170.348 C 64.052 170.348,63.838 166.049,64.174 165.713 C 64.423 165.465,64.759 165.618,65.167 166.168 M70.999 165.769 C 71.643 166.014,71.911 166.778,71.566 167.390 C 71.336 167.799,71.334 167.892,71.549 168.071 C 71.929 168.386,71.865 169.578,71.447 169.996 C 70.263 171.180,68.248 169.678,69.096 168.243 C 69.341 167.827,69.363 167.665,69.197 167.498 C 68.313 166.615,69.707 165.278,70.999 165.769 M75.495 167.984 C 75.495 170.360,75.493 170.372,75.099 170.316 C 74.727 170.263,74.700 170.165,74.652 168.720 C 74.606 167.310,74.460 166.895,74.175 167.356 C 74.001 167.637,73.559 167.559,73.559 167.247 C 73.559 166.871,74.794 165.629,75.187 165.611 C 75.466 165.598,75.495 165.822,75.495 167.984 M78.883 166.138 C 79.480 166.869,79.140 167.907,78.005 168.821 C 77.411 169.299,77.517 169.468,78.411 169.468 C 79.144 169.468,79.210 169.503,79.159 169.864 C 79.106 170.233,79.004 170.263,77.651 170.311 C 75.758 170.377,75.694 170.060,77.255 168.338 C 77.835 167.697,78.311 167.141,78.311 167.103 C 78.311 166.452,77.359 166.223,77.167 166.828 C 77.048 167.203,76.788 167.269,76.400 167.023 C 76.054 166.804,76.308 166.173,76.871 165.858 C 77.486 165.512,78.485 165.651,78.883 166.138 M56.841 166.828 C 56.594 167.076,56.489 167.415,56.489 167.972 C 56.489 169.379,57.790 170.019,58.588 169.004 C 59.664 167.636,58.047 165.622,56.841 166.828 M69.930 166.732 C 69.796 167.082,69.995 167.356,70.383 167.356 C 70.729 167.356,70.916 167.054,70.791 166.696 C 70.685 166.393,70.051 166.419,69.930 166.732 M73.031 167.456 C 73.031 167.824,72.958 167.898,72.635 167.852 C 72.028 167.766,71.977 167.004,72.579 167.004 C 72.947 167.004,73.031 167.088,73.031 167.456 M69.876 168.564 C 69.656 168.976,69.780 169.398,70.163 169.545 C 70.567 169.700,70.945 169.298,70.884 168.779 C 70.817 168.196,70.149 168.054,69.876 168.564 M72.999 169.865 C 73.044 170.255,72.984 170.348,72.685 170.348 C 72.276 170.348,72.057 169.968,72.220 169.543 C 72.391 169.098,72.936 169.324,72.999 169.865 " stroke="none" fill="#050708" fill-rule="evenodd"></path><path id="path2" d="M229.325 1.689 C 225.389 3.722,225.605 3.519,225.605 5.179 L 225.605 6.511 224.373 6.511 L 223.141 6.511 223.141 7.334 L 223.141 8.156 222.734 7.774 C 222.510 7.563,222.250 7.391,222.157 7.391 C 222.064 7.391,221.856 7.237,221.695 7.049 C 220.739 5.932,215.201 5.853,214.114 6.941 C 213.988 7.067,213.632 7.301,213.322 7.461 L 212.758 7.752 212.758 3.964 L 212.758 0.176 208.887 0.176 L 205.015 0.176 205.015 3.344 L 205.015 6.511 201.418 6.511 L 197.822 6.511 197.767 7.145 L 197.712 7.779 196.832 7.181 C 194.956 5.903,189.849 5.748,188.913 6.939 C 188.815 7.063,188.562 7.219,188.349 7.287 C 187.777 7.468,186.365 8.959,186.000 9.767 L 185.683 10.471 185.670 8.491 L 185.658 6.511 181.786 6.511 L 177.915 6.511 177.915 11.967 L 177.915 17.422 172.283 17.422 L 166.652 17.422 166.652 8.799 L 166.652 0.176 162.516 0.176 L 158.381 0.176 158.381 12.319 L 158.381 24.461 171.906 24.461 L 185.431 24.461 185.544 25.678 C 185.607 26.348,185.706 27.021,185.764 27.174 C 185.861 27.425,185.273 27.453,179.869 27.453 L 173.867 27.453 173.867 60.713 L 173.867 93.973 180.062 93.973 C 183.469 93.973,186.181 94.037,186.089 94.116 C 185.997 94.195,185.110 94.599,184.118 95.015 C 183.126 95.431,182.314 95.839,182.314 95.921 C 182.314 96.004,181.986 96.159,181.585 96.267 C 180.670 96.514,178.895 97.366,178.523 97.739 C 178.368 97.894,178.123 98.020,177.979 98.020 C 177.669 98.020,175.560 99.001,174.912 99.447 C 174.664 99.617,173.793 99.991,172.976 100.277 C 172.160 100.564,171.104 100.967,170.630 101.174 C 168.342 102.171,162.541 102.886,159.122 102.591 C 156.930 102.403,152.830 101.648,152.491 101.371 C 152.254 101.177,149.122 99.956,148.861 99.956 C 148.751 99.956,148.214 99.688,147.669 99.359 C 147.124 99.031,146.243 98.586,145.711 98.369 C 145.178 98.153,143.957 97.590,142.997 97.118 C 142.037 96.646,141.117 96.260,140.953 96.260 C 140.789 96.260,140.453 96.102,140.207 95.908 C 138.838 94.831,134.752 94.190,132.300 94.667 C 130.923 94.935,128.465 95.733,128.465 95.912 C 128.465 95.985,128.174 96.100,127.819 96.166 C 127.127 96.296,125.069 97.081,123.608 97.772 C 123.115 98.005,122.618 98.196,122.504 98.196 C 122.326 98.196,121.619 98.544,119.490 99.678 C 119.248 99.807,118.431 100.217,117.675 100.589 C 116.919 100.961,116.217 101.367,116.114 101.491 C 116.011 101.614,115.851 101.716,115.757 101.716 C 115.479 101.716,112.736 102.957,112.451 103.212 C 112.305 103.342,111.949 103.500,111.659 103.564 C 110.855 103.741,109.280 104.365,108.472 104.826 C 108.075 105.053,107.204 105.427,106.537 105.656 C 105.188 106.120,104.313 106.492,104.179 106.658 C 104.047 106.823,102.427 107.303,101.617 107.416 C 100.724 107.542,98.800 108.149,98.505 108.399 C 98.383 108.501,97.955 108.816,97.553 109.099 C 94.861 110.991,94.007 115.898,96.137 117.235 C 97.258 117.938,101.261 118.061,101.707 117.406 C 101.760 117.328,102.319 117.124,102.948 116.952 C 104.106 116.635,105.027 116.177,105.685 115.591 C 105.884 115.414,106.554 115.023,107.175 114.723 C 107.795 114.422,108.487 114.031,108.713 113.854 C 108.939 113.676,109.694 113.314,110.391 113.049 C 111.088 112.783,112.236 112.263,112.943 111.893 C 113.649 111.522,114.345 111.219,114.490 111.219 C 114.790 111.219,116.104 110.585,116.498 110.249 C 116.643 110.126,117.396 109.767,118.170 109.451 C 118.944 109.136,119.690 108.791,119.826 108.684 C 120.032 108.524,120.044 108.552,119.896 108.843 C 119.797 109.037,119.620 109.590,119.502 110.072 C 119.384 110.555,119.224 110.991,119.147 111.040 C 118.918 111.187,117.906 113.847,117.906 114.301 C 117.906 114.530,117.827 114.766,117.730 114.826 C 117.633 114.886,117.554 115.089,117.554 115.277 C 117.554 115.464,117.485 115.618,117.401 115.618 C 117.245 115.618,116.261 118.103,116.042 119.050 C 115.975 119.340,115.663 120.132,115.349 120.810 C 115.034 121.487,114.602 122.596,114.388 123.273 C 114.175 123.951,113.817 124.901,113.594 125.385 C 113.067 126.530,112.331 128.575,112.186 129.300 C 112.122 129.615,112.011 129.872,111.939 129.872 C 111.780 129.872,110.794 132.443,110.504 133.612 C 110.390 134.072,110.227 134.448,110.142 134.448 C 110.057 134.448,109.987 134.590,109.987 134.765 C 109.987 134.939,109.917 135.157,109.832 135.249 C 109.665 135.429,109.013 137.146,108.731 138.143 C 108.636 138.482,108.407 139.076,108.222 139.463 C 107.781 140.389,107.054 142.318,106.896 142.983 C 106.827 143.273,106.714 143.590,106.645 143.687 C 106.477 143.924,105.293 146.919,105.149 147.470 C 105.037 147.902,104.953 148.109,104.200 149.807 C 103.995 150.269,103.828 150.732,103.828 150.836 C 103.828 150.940,103.719 151.274,103.587 151.579 C 103.289 152.266,102.587 154.051,102.020 155.565 C 101.593 156.706,101.149 157.872,99.807 161.373 C 99.418 162.389,98.857 163.870,98.560 164.665 C 98.264 165.460,97.911 166.370,97.775 166.689 C 97.640 167.007,97.233 168.060,96.872 169.028 C 96.510 169.996,96.110 171.025,95.982 171.315 C 95.759 171.824,94.916 174.159,94.728 174.791 C 94.641 175.083,95.392 175.099,108.789 175.099 L 122.943 175.099 123.340 173.471 C 123.559 172.576,123.823 171.487,123.927 171.051 C 124.032 170.616,124.268 169.917,124.453 169.499 C 124.638 169.081,124.915 168.230,125.068 167.608 L 125.348 166.476 132.355 166.476 L 139.362 166.476 139.536 167.136 C 139.632 167.499,139.833 168.390,139.983 169.116 C 140.132 169.841,140.334 170.462,140.431 170.494 C 140.528 170.526,140.607 170.676,140.607 170.828 C 140.607 170.979,140.855 172.002,141.157 173.101 L 141.707 175.099 156.907 175.099 C 166.218 175.099,172.107 175.035,172.107 174.934 C 172.107 174.844,172.021 174.547,171.914 174.275 C 171.808 174.002,171.614 173.372,171.482 172.875 C 171.350 172.378,171.010 171.507,170.727 170.939 C 170.443 170.372,170.113 169.591,169.993 169.204 C 169.480 167.541,169.060 166.382,168.942 166.300 C 168.786 166.191,168.122 164.404,167.799 163.220 C 167.667 162.736,167.329 161.865,167.048 161.285 C 166.767 160.704,166.436 159.872,166.312 159.437 C 165.946 158.144,165.550 157.067,165.406 156.971 C 165.242 156.862,164.799 155.687,164.357 154.192 C 164.177 153.581,163.836 152.671,163.600 152.168 C 163.030 150.954,162.429 149.368,162.429 149.079 C 162.429 148.952,162.142 148.201,161.793 147.411 C 161.443 146.621,160.929 145.271,160.651 144.411 C 160.372 143.551,160.078 142.759,159.998 142.651 C 159.786 142.368,158.733 139.611,158.733 139.340 C 158.733 139.214,158.505 138.629,158.226 138.040 C 157.947 137.450,157.458 136.183,157.139 135.224 C 156.820 134.265,156.511 133.440,156.451 133.392 C 156.316 133.282,155.037 129.818,155.037 129.561 C 155.037 129.458,154.848 128.991,154.616 128.523 C 154.384 128.055,153.939 126.925,153.628 126.011 C 153.317 125.098,152.995 124.227,152.912 124.076 C 152.620 123.546,151.342 120.083,151.342 119.823 C 151.342 119.678,151.275 119.485,151.193 119.393 C 151.055 119.237,150.770 118.529,149.888 116.146 C 149.691 115.614,149.414 114.911,149.273 114.585 C 149.132 114.258,148.952 113.783,148.873 113.529 C 148.793 113.275,148.558 112.631,148.349 112.099 C 148.140 111.566,147.926 110.992,147.875 110.823 C 147.823 110.653,147.711 110.515,147.626 110.515 C 147.540 110.515,147.470 110.337,147.470 110.121 C 147.470 109.904,147.332 109.389,147.162 108.977 L 146.854 108.228 133.744 108.218 L 120.634 108.207 122.041 107.678 C 122.816 107.388,124.043 106.886,124.769 106.564 C 125.495 106.243,127.079 105.766,128.289 105.506 C 129.498 105.246,130.670 104.945,130.892 104.837 C 131.447 104.566,136.199 104.557,136.752 104.825 C 136.985 104.938,138.126 105.199,139.287 105.405 C 141.712 105.836,144.350 106.463,144.479 106.638 C 144.527 106.704,145.121 106.941,145.799 107.164 C 147.572 107.748,148.913 108.259,149.318 108.506 C 149.728 108.756,151.572 109.304,153.454 109.736 C 154.179 109.903,154.853 110.098,154.949 110.170 C 155.189 110.349,157.611 110.818,159.432 111.038 C 162.643 111.427,166.685 111.126,168.884 110.335 C 169.876 109.978,170.610 109.751,172.635 109.176 C 173.168 109.025,174.118 108.676,174.747 108.402 C 175.376 108.128,176.703 107.651,177.695 107.343 C 178.687 107.034,179.498 106.731,179.498 106.668 C 179.498 106.540,180.118 106.318,182.314 105.662 C 183.137 105.416,183.990 105.098,184.209 104.955 C 184.429 104.812,185.617 104.369,186.849 103.970 C 188.081 103.571,189.248 103.144,189.441 103.021 C 189.797 102.796,191.491 102.208,192.395 101.997 C 192.665 101.933,193.388 101.652,194.002 101.371 C 194.616 101.089,195.940 100.605,196.943 100.295 C 197.947 99.984,198.808 99.674,198.856 99.605 C 198.949 99.474,201.914 98.486,202.816 98.286 C 203.106 98.222,203.581 98.059,203.872 97.925 C 204.587 97.594,207.988 96.699,209.500 96.444 C 210.175 96.329,210.809 96.171,210.907 96.091 C 211.110 95.927,215.464 94.910,217.070 94.651 C 217.651 94.558,218.465 94.367,218.880 94.227 C 219.519 94.012,222.503 93.973,238.458 93.973 L 257.281 93.973 257.281 90.386 C 257.281 86.156,256.859 86.644,260.669 86.470 L 263.264 86.352 263.264 90.162 L 263.264 93.973 276.807 93.973 L 290.350 93.973 292.249 94.975 C 293.294 95.526,294.699 96.248,295.371 96.578 C 296.043 96.909,296.914 97.384,297.307 97.634 C 297.699 97.884,298.625 98.383,299.364 98.742 C 300.103 99.102,300.755 99.473,300.814 99.569 C 300.873 99.664,301.614 100.082,302.462 100.499 C 303.310 100.915,304.059 101.346,304.127 101.455 C 304.195 101.565,304.591 101.805,305.007 101.988 C 305.423 102.172,306.120 102.566,306.555 102.864 C 306.991 103.162,307.901 103.712,308.579 104.086 C 309.256 104.460,309.838 104.835,309.871 104.918 C 309.905 105.002,310.340 105.277,310.839 105.529 C 311.338 105.781,312.222 106.319,312.802 106.725 C 313.383 107.131,314.175 107.616,314.562 107.801 L 315.266 108.139 312.892 108.227 L 310.518 108.315 310.043 109.899 C 309.782 110.770,309.564 111.733,309.558 112.040 C 309.552 112.346,309.470 112.624,309.377 112.656 C 309.204 112.716,307.787 117.408,307.787 117.922 C 307.787 118.077,307.673 118.434,307.534 118.715 C 307.395 118.996,306.925 120.453,306.488 121.953 C 306.052 123.454,305.371 125.750,304.976 127.057 C 304.581 128.363,304.209 129.749,304.148 130.136 C 304.088 130.524,303.987 130.880,303.924 130.928 C 303.861 130.977,303.475 132.165,303.068 133.568 C 302.660 134.971,302.166 136.634,301.969 137.264 C 301.773 137.893,301.506 138.764,301.376 139.199 C 300.525 142.064,300.806 142.486,298.921 135.504 C 298.778 134.971,298.253 133.110,297.756 131.368 C 297.259 129.626,296.745 127.805,296.614 127.321 C 295.616 123.641,295.238 122.371,295.100 122.226 C 295.012 122.134,294.941 121.869,294.941 121.636 C 294.941 121.404,294.713 120.410,294.434 119.428 C 294.156 118.446,293.829 117.266,293.707 116.806 C 293.586 116.346,293.429 115.970,293.358 115.970 C 293.288 115.970,293.183 115.594,293.125 115.134 C 293.021 114.299,291.912 110.213,291.609 109.547 C 291.520 109.353,291.401 108.977,291.343 108.711 L 291.238 108.227 276.118 108.227 C 266.169 108.227,260.960 108.288,260.888 108.404 C 260.758 108.615,261.162 109.811,261.364 109.811 C 261.441 109.811,261.505 109.927,261.505 110.069 C 261.505 110.605,262.775 114.037,263.199 114.645 C 263.332 114.836,263.440 115.123,263.440 115.281 C 263.440 115.649,264.611 118.810,264.798 118.947 C 264.959 119.065,265.376 120.201,265.376 120.523 C 265.376 120.807,266.469 123.599,266.624 123.713 C 266.691 123.762,266.920 124.395,267.134 125.121 C 267.545 126.515,268.183 128.141,268.377 128.289 C 268.441 128.337,268.746 129.168,269.055 130.136 C 269.364 131.104,269.852 132.381,270.140 132.974 C 270.428 133.567,270.783 134.511,270.929 135.073 C 271.076 135.634,271.426 136.578,271.708 137.169 C 271.990 137.760,272.503 139.103,272.847 140.153 C 273.191 141.204,273.623 142.310,273.807 142.611 C 273.990 142.912,274.315 143.753,274.529 144.479 C 274.742 145.205,275.150 146.313,275.435 146.942 C 276.175 148.576,276.225 148.703,276.460 149.582 C 276.577 150.018,276.933 150.928,277.252 151.606 C 277.571 152.283,278.006 153.427,278.220 154.147 C 278.434 154.867,278.873 156.020,279.196 156.709 C 279.519 157.399,279.836 158.196,279.900 158.480 C 280.059 159.182,280.679 160.887,280.856 161.107 C 281.084 161.391,281.918 163.572,281.918 163.884 C 281.918 164.040,282.229 164.838,282.610 165.658 C 282.990 166.478,283.472 167.730,283.681 168.440 C 283.890 169.150,284.160 169.890,284.282 170.084 C 284.492 170.418,285.311 172.614,285.792 174.131 C 286.115 175.149,285.322 175.094,299.516 175.094 C 306.727 175.094,312.712 175.035,312.817 174.964 C 312.922 174.893,313.152 174.399,313.328 173.867 C 314.018 171.784,314.338 170.930,314.740 170.084 C 314.971 169.600,315.297 168.729,315.465 168.148 C 315.633 167.567,316.073 166.443,316.442 165.651 C 316.812 164.858,317.114 164.126,317.114 164.024 C 317.114 163.695,317.851 161.654,318.167 161.109 C 318.336 160.818,318.611 160.145,318.780 159.613 C 318.948 159.081,319.329 158.051,319.627 157.325 C 319.924 156.599,320.454 155.174,320.804 154.158 C 321.154 153.141,321.649 151.874,321.903 151.342 C 322.157 150.810,322.460 150.018,322.577 149.582 C 322.694 149.147,322.890 148.553,323.012 148.262 C 323.134 147.972,323.293 147.536,323.365 147.294 C 323.438 147.052,323.550 146.815,323.616 146.766 C 323.758 146.662,324.295 145.233,324.856 143.473 C 325.078 142.775,325.315 142.181,325.381 142.153 C 325.531 142.092,326.322 139.950,326.625 138.789 C 326.747 138.321,326.944 137.841,327.064 137.722 C 327.305 137.480,328.201 135.100,328.201 134.700 C 328.201 134.561,328.403 134.031,328.649 133.523 C 329.275 132.237,329.899 130.633,330.138 129.696 C 330.250 129.261,330.441 128.746,330.563 128.553 C 330.907 128.008,331.726 125.876,332.009 124.790 C 332.149 124.252,332.342 123.764,332.439 123.704 C 332.643 123.578,334.006 119.724,334.007 119.270 C 334.008 119.100,334.083 118.962,334.174 118.962 C 334.266 118.962,334.515 118.484,334.728 117.900 C 334.941 117.317,335.163 116.813,335.221 116.781 C 335.365 116.703,340.329 117.000,340.827 117.116 L 341.222 117.208 341.267 146.198 L 341.311 175.187 366.080 175.232 L 390.849 175.276 390.849 164.277 L 390.849 153.278 380.114 153.278 L 369.380 153.278 369.380 151.958 L 369.380 150.638 377.652 150.638 L 385.925 150.638 385.879 142.323 L 385.834 134.008 377.607 133.962 L 369.380 133.916 369.380 132.686 L 369.380 131.456 379.586 131.456 L 389.793 131.456 389.793 125.948 L 389.793 120.439 390.893 120.562 C 391.498 120.629,392.242 120.813,392.547 120.971 C 393.973 121.709,397.556 121.736,398.611 121.018 C 399.681 120.290,399.912 119.793,399.912 118.227 L 399.912 116.813 398.901 115.872 C 397.692 114.747,397.305 114.619,394.105 114.290 C 392.750 114.150,391.227 113.991,390.722 113.935 L 389.802 113.834 389.754 111.075 L 389.705 108.315 372.459 108.227 C 355.560 108.141,355.192 108.132,354.158 107.773 C 353.577 107.571,352.706 107.310,352.222 107.193 C 351.738 107.075,350.985 106.794,350.550 106.569 C 350.114 106.343,349.085 105.947,348.262 105.689 C 347.440 105.432,346.133 104.914,345.359 104.538 C 344.584 104.162,343.713 103.800,343.423 103.732 C 343.132 103.665,342.341 103.331,341.663 102.991 C 340.985 102.651,339.956 102.193,339.375 101.972 C 338.795 101.752,337.686 101.246,336.912 100.848 C 336.137 100.450,335.187 100.039,334.800 99.936 C 334.413 99.832,333.977 99.647,333.832 99.524 C 333.506 99.249,331.440 98.265,330.840 98.100 C 330.598 98.033,330.276 97.870,330.124 97.737 C 329.698 97.364,327.352 96.260,326.986 96.260 C 326.806 96.260,326.564 96.145,326.447 96.004 C 326.220 95.730,324.002 94.611,323.273 94.403 C 323.031 94.334,322.794 94.219,322.745 94.147 C 322.606 93.942,319.789 92.565,319.508 92.565 C 319.369 92.565,319.229 92.494,319.196 92.407 C 319.164 92.321,318.306 91.816,317.290 91.287 C 314.856 90.018,312.154 88.528,311.879 88.303 C 311.708 88.163,311.659 86.065,311.659 78.905 L 311.659 69.688 301.540 69.688 L 291.421 69.688 291.421 48.570 L 291.421 27.453 277.343 27.453 L 263.264 27.453 263.264 48.528 L 263.264 69.604 261.109 69.920 C 259.923 70.093,258.577 70.299,258.117 70.376 C 257.317 70.511,257.281 70.499,257.281 70.102 L 257.281 69.688 247.162 69.688 L 237.044 69.688 237.044 48.570 L 237.044 27.453 222.966 27.453 L 208.888 27.453 208.843 56.441 L 208.799 85.429 205.543 86.616 C 203.753 87.269,202.228 87.805,202.156 87.808 C 202.083 87.811,202.024 74.806,202.024 58.908 L 202.024 30.002 203.043 28.914 C 204.246 27.630,204.773 26.650,204.939 25.385 L 205.061 24.461 208.910 24.461 L 212.758 24.461 212.758 19.910 C 212.758 13.840,212.786 13.705,214.291 12.490 C 214.670 12.184,215.402 12.308,215.890 12.760 L 216.366 13.201 216.417 18.831 L 216.468 24.461 220.513 24.461 L 224.558 24.461 224.510 18.390 L 224.461 12.318 225.033 12.318 L 225.605 12.319 225.605 16.268 C 225.605 18.440,225.674 20.259,225.758 20.311 C 225.842 20.363,225.963 20.731,226.026 21.128 C 226.465 23.872,228.598 24.998,232.909 24.759 C 234.676 24.661,237.024 24.318,237.255 24.125 C 237.508 23.912,236.788 18.564,236.510 18.588 C 236.368 18.601,235.763 18.714,235.165 18.841 C 233.503 19.192,233.524 19.236,233.524 15.465 L 233.524 12.319 235.284 12.319 L 237.044 12.319 237.044 9.415 L 237.044 6.511 235.284 6.511 L 233.524 6.511 233.524 3.256 L 233.524 0.000 233.040 0.010 C 232.774 0.016,231.102 0.771,229.325 1.689 M177.915 3.080 L 177.915 5.807 181.786 5.807 L 185.658 5.807 185.658 3.080 L 185.658 0.352 181.786 0.352 L 177.915 0.352 177.915 3.080 M130.648 0.872 C 127.815 1.485,126.697 2.914,126.410 6.291 L 126.301 7.567 121.312 7.567 L 116.322 7.567 116.322 13.110 L 116.322 18.654 111.660 18.654 L 106.998 18.654 106.953 9.899 L 106.907 1.144 102.640 1.097 L 98.372 1.050 98.372 13.459 L 98.372 25.869 111.219 25.869 L 124.065 25.869 124.065 19.710 L 124.065 13.550 125.209 13.550 L 126.353 13.550 126.353 19.713 L 126.353 25.876 130.268 25.828 L 134.184 25.781 134.230 19.666 L 134.276 13.550 135.087 13.550 C 135.880 13.550,135.894 13.560,135.784 14.034 C 134.872 17.933,136.336 22.679,138.949 24.294 C 139.286 24.502,139.676 24.787,139.817 24.928 C 141.246 26.357,151.555 26.435,152.565 25.025 C 152.618 24.950,153.075 24.628,153.579 24.309 C 154.371 23.808,155.376 22.705,156.012 21.638 C 156.113 21.469,156.300 21.205,156.428 21.050 C 156.953 20.418,156.597 20.316,152.701 19.983 L 148.919 19.660 148.239 20.202 C 146.539 21.556,144.127 21.083,143.707 19.314 L 143.592 18.830 150.195 18.830 L 156.797 18.830 156.797 16.979 C 156.797 13.559,154.977 9.658,153.103 9.063 C 152.908 9.002,152.750 8.879,152.750 8.791 C 152.750 8.702,152.435 8.469,152.050 8.273 C 149.108 6.772,141.763 7.018,139.639 8.689 C 139.446 8.841,138.931 9.229,138.497 9.550 C 138.062 9.872,137.607 10.329,137.487 10.567 C 137.298 10.940,137.268 10.765,137.266 9.283 L 137.264 7.567 135.768 7.567 C 134.323 7.567,134.272 7.553,134.272 7.161 C 134.272 6.158,135.024 5.910,137.111 6.227 C 138.071 6.373,138.030 6.452,138.315 3.864 C 138.415 2.949,138.589 2.022,138.702 1.804 C 138.814 1.586,138.862 1.364,138.808 1.309 C 138.447 0.948,131.914 0.599,130.648 0.872 M116.322 3.872 L 116.322 6.687 120.194 6.687 L 124.065 6.687 124.065 3.872 L 124.065 1.056 120.194 1.056 L 116.322 1.056 116.322 3.872 M165.730 9.808 L 165.775 18.473 171.449 18.519 L 177.123 18.566 177.123 21.029 L 177.123 23.493 168.104 23.539 L 159.085 23.584 159.085 12.316 L 159.085 1.048 162.385 1.096 L 165.684 1.144 165.730 9.808 M211.920 5.451 L 211.967 9.847 213.022 8.943 C 216.332 6.110,221.160 6.463,222.774 9.655 C 223.394 10.880,223.493 12.014,223.493 17.871 L 223.493 23.581 220.511 23.581 L 217.529 23.581 217.476 18.434 C 217.409 12.005,217.126 11.290,214.731 11.482 C 212.322 11.675,211.981 12.547,211.910 18.702 L 211.854 23.590 208.918 23.541 L 205.983 23.493 205.938 12.495 C 205.913 6.445,205.930 1.397,205.976 1.276 C 206.039 1.112,206.804 1.056,208.966 1.056 L 211.873 1.056 211.920 5.451 M184.778 3.080 L 184.778 4.927 181.786 4.927 L 178.795 4.927 178.795 3.080 L 178.795 1.232 181.786 1.232 L 184.778 1.232 184.778 3.080 M232.468 4.399 L 232.468 7.391 234.316 7.391 L 236.164 7.391 236.164 9.409 L 236.164 11.426 234.360 11.476 L 232.556 11.527 232.502 14.430 C 232.402 19.892,232.619 20.279,235.539 19.848 C 235.931 19.790,236.086 20.388,236.191 22.349 L 236.252 23.493 234.932 23.723 C 233.031 24.053,229.966 23.921,228.943 23.463 C 226.972 22.583,226.639 21.525,226.529 15.802 L 226.446 11.454 225.277 11.402 L 224.109 11.351 224.109 9.415 L 224.109 7.479 225.297 7.427 L 226.485 7.375 226.485 5.800 L 226.485 4.226 229.256 2.826 C 230.781 2.056,232.127 1.422,232.248 1.417 C 232.416 1.410,232.468 2.119,232.468 4.399 M136.516 1.872 C 137.782 1.993,137.811 2.067,137.380 4.136 L 137.161 5.191 135.842 5.191 C 133.851 5.191,133.220 5.813,133.217 7.780 L 133.216 8.433 134.756 8.484 L 136.296 8.535 136.296 10.559 L 136.296 12.582 134.756 12.633 L 133.216 12.684 133.216 18.749 L 133.216 24.813 130.224 24.813 L 127.233 24.813 127.233 18.742 L 127.233 12.670 126.001 12.670 L 124.769 12.670 124.769 10.559 L 124.769 8.447 125.975 8.447 L 127.181 8.447 127.287 6.819 C 127.591 2.160,129.394 1.194,136.516 1.872 M105.982 10.867 L 106.027 19.622 110.823 19.668 L 115.618 19.715 115.618 22.264 L 115.618 24.813 107.435 24.813 L 99.252 24.813 99.252 13.462 L 99.252 2.112 102.594 2.112 L 105.936 2.112 105.982 10.867 M123.185 3.964 L 123.185 5.816 120.238 5.768 L 117.290 5.719 117.240 3.916 L 117.190 2.112 120.187 2.112 L 123.185 2.112 123.185 3.964 M194.819 7.322 C 196.015 7.678,196.995 8.375,197.893 9.510 L 198.592 10.394 198.643 8.892 L 198.694 7.391 201.421 7.391 L 204.148 7.391 204.098 16.498 L 204.048 25.605 203.449 26.708 C 201.975 29.426,199.827 30.338,194.897 30.340 C 189.505 30.342,187.140 29.115,186.514 25.992 C 186.239 24.620,186.217 24.628,189.400 24.962 L 192.174 25.253 192.527 25.835 C 193.534 27.496,196.862 27.298,197.756 25.524 C 198.124 24.795,198.393 20.238,198.069 20.238 C 198.023 20.238,197.623 20.600,197.180 21.044 C 192.866 25.357,186.355 22.079,186.051 15.441 C 185.768 9.272,189.560 5.761,194.819 7.322 M184.736 15.442 L 184.690 23.493 181.742 23.541 L 178.795 23.590 178.795 15.490 L 178.795 7.391 181.788 7.391 L 184.781 7.391 184.736 15.442 M149.956 8.585 C 153.609 9.620,155.576 12.368,155.777 16.718 L 155.829 17.862 149.162 17.908 L 142.496 17.954 142.604 18.744 C 143.032 21.864,146.658 23.156,148.916 20.993 L 149.394 20.536 151.820 20.747 C 155.596 21.076,155.472 20.980,154.077 22.487 C 150.451 26.403,141.400 26.241,138.220 22.203 C 134.943 18.039,136.266 11.425,140.824 9.189 C 143.128 8.059,147.159 7.793,149.956 8.585 M123.185 16.630 L 123.185 24.813 120.194 24.813 L 117.202 24.813 117.202 16.747 C 117.202 12.311,117.255 8.629,117.319 8.564 C 117.384 8.500,118.730 8.447,120.311 8.447 L 123.185 8.447 123.185 16.630 M193.386 11.488 C 190.968 13.117,191.496 18.303,194.152 19.018 C 196.574 19.671,198.238 17.945,198.125 14.898 C 198.010 11.803,195.548 10.031,193.386 11.488 M145.105 11.525 C 143.678 12.033,142.858 13.068,142.626 14.650 L 142.503 15.486 146.138 15.486 L 149.774 15.486 149.663 14.826 C 149.203 12.088,147.331 10.732,145.105 11.525 M195.724 12.156 C 197.662 13.061,197.626 17.323,195.674 18.132 C 194.124 18.774,192.864 17.393,192.870 15.058 C 192.876 12.675,194.123 11.407,195.724 12.156 M147.710 12.909 C 148.044 13.214,148.399 13.720,148.500 14.034 L 148.684 14.606 146.138 14.606 L 143.592 14.606 143.708 14.122 C 144.113 12.427,146.416 11.729,147.710 12.909 M186.002 19.666 C 186.913 22.977,192.413 24.906,195.908 23.140 L 197.096 22.540 197.096 23.745 C 197.096 25.180,196.816 25.635,195.787 25.867 C 194.493 26.158,193.527 25.804,193.207 24.919 L 192.991 24.321 191.040 24.131 C 189.967 24.027,188.317 23.892,187.374 23.833 L 185.658 23.724 185.658 21.365 C 185.658 18.866,185.710 18.606,186.002 19.666 M339.468 26.339 C 338.841 26.381,338.287 26.476,338.236 26.549 C 338.185 26.623,337.431 26.776,336.560 26.891 C 335.689 27.005,334.501 27.210,333.920 27.346 C 333.339 27.482,332.432 27.682,331.903 27.792 C 331.375 27.902,330.464 28.221,329.880 28.502 C 329.295 28.784,328.352 29.190,327.784 29.406 C 327.216 29.622,326.543 29.968,326.288 30.176 C 326.033 30.384,325.429 30.777,324.945 31.050 C 324.461 31.323,323.907 31.682,323.713 31.848 C 322.807 32.624,320.106 35.348,320.106 35.485 C 320.106 35.570,319.958 35.731,319.777 35.844 C 319.596 35.957,319.187 36.570,318.867 37.206 C 318.547 37.843,318.231 38.363,318.164 38.363 C 317.973 38.363,317.155 40.293,316.943 41.245 C 316.837 41.717,316.604 42.430,316.424 42.829 C 315.393 45.121,315.361 54.310,316.381 55.080 C 316.530 55.192,316.938 56.347,316.938 56.656 C 316.938 56.961,317.946 58.948,318.327 59.393 C 318.493 59.586,318.781 60.042,318.967 60.405 C 319.154 60.768,319.570 61.276,319.891 61.532 C 320.213 61.789,320.587 62.213,320.723 62.476 C 320.859 62.738,321.246 63.084,321.584 63.245 C 321.922 63.405,322.359 63.762,322.556 64.037 C 322.752 64.312,323.172 64.644,323.489 64.775 C 323.806 64.905,324.393 65.260,324.794 65.565 C 325.194 65.869,325.907 66.296,326.377 66.513 C 326.848 66.730,327.945 67.250,328.817 67.668 C 329.688 68.086,331.072 68.598,331.892 68.806 C 332.712 69.013,333.470 69.255,333.576 69.342 C 333.871 69.587,337.262 70.370,338.933 70.578 C 342.015 70.962,343.342 72.345,341.795 73.562 C 340.935 74.239,334.293 73.707,333.230 72.876 C 333.125 72.794,332.565 72.591,331.984 72.425 C 329.749 71.784,328.621 71.396,328.113 71.095 C 327.822 70.922,326.991 70.570,326.266 70.311 C 325.541 70.052,324.595 69.607,324.163 69.321 C 323.732 69.035,322.933 68.638,322.389 68.440 C 321.845 68.242,321.150 67.867,320.845 67.608 C 320.192 67.052,318.277 65.992,317.926 65.992 C 317.630 65.992,317.523 68.948,317.367 81.390 L 317.263 89.661 318.641 90.299 C 320.366 91.099,320.647 91.211,322.338 91.772 C 323.095 92.023,323.870 92.316,324.062 92.424 C 324.254 92.531,325.284 92.814,326.350 93.051 C 327.416 93.289,328.605 93.555,328.993 93.644 C 329.380 93.732,330.013 93.853,330.400 93.912 C 330.788 93.972,331.183 94.080,331.280 94.152 C 331.681 94.453,334.587 94.739,341.047 95.114 C 343.969 95.283,350.619 94.728,352.341 94.170 C 352.953 93.972,354.245 93.565,355.213 93.266 C 361.704 91.256,367.281 86.281,369.038 80.930 C 369.336 80.022,369.650 79.120,369.736 78.927 C 370.709 76.740,370.723 68.997,369.756 67.671 C 369.683 67.570,369.396 66.815,369.120 65.992 C 368.843 65.169,368.333 64.068,367.986 63.544 C 367.640 63.020,367.220 62.334,367.054 62.020 C 366.889 61.707,366.518 61.282,366.231 61.078 C 365.944 60.874,365.537 60.429,365.328 60.089 C 365.118 59.750,364.714 59.352,364.430 59.206 C 364.147 59.059,363.707 58.706,363.453 58.421 C 363.199 58.136,362.653 57.739,362.240 57.539 C 361.827 57.339,361.409 57.079,361.312 56.962 C 361.150 56.767,359.977 56.186,357.149 54.899 C 355.929 54.343,354.117 53.755,353.102 53.584 C 352.714 53.519,352.313 53.396,352.210 53.311 C 351.974 53.116,348.218 52.194,346.446 51.896 C 343.537 51.408,342.681 49.234,345.129 48.554 C 346.390 48.204,353.358 49.166,354.158 49.800 C 354.254 49.877,354.769 50.029,355.301 50.139 C 356.540 50.393,359.251 51.264,359.556 51.506 C 359.684 51.607,360.342 51.866,361.018 52.082 C 361.694 52.297,363.132 52.902,364.213 53.425 C 365.294 53.949,366.345 54.377,366.547 54.377 L 366.916 54.377 366.916 43.021 L 366.916 31.664 366.150 31.335 C 365.728 31.155,364.719 30.692,363.906 30.308 C 363.093 29.924,361.993 29.508,361.461 29.384 C 360.928 29.259,359.938 28.965,359.261 28.731 C 357.102 27.983,352.454 27.090,349.230 26.804 C 348.553 26.744,347.954 26.629,347.901 26.548 C 347.792 26.382,341.235 26.220,339.468 26.339 M0.000 101.188 L 0.000 175.979 46.634 175.979 L 93.269 175.979 93.269 101.188 L 93.269 26.397 46.634 26.397 L 0.000 26.397 0.000 101.188 M350.022 27.787 C 352.868 28.208,355.909 28.783,357.237 29.152 C 359.702 29.838,362.155 30.672,363.926 31.429 L 365.860 32.254 365.860 42.612 C 365.860 49.591,365.801 52.970,365.679 52.970 C 365.580 52.970,365.015 52.726,364.424 52.427 C 359.449 49.916,350.513 47.497,346.304 47.522 C 343.639 47.538,342.391 48.575,342.809 50.426 C 343.138 51.886,343.804 52.234,348.219 53.257 C 362.417 56.545,368.809 62.158,369.481 71.927 C 370.200 82.355,363.422 90.489,351.694 93.274 C 342.912 95.360,328.537 93.735,319.588 89.645 L 318.258 89.037 318.299 86.709 C 318.321 85.429,318.390 80.601,318.452 75.979 C 318.519 70.886,318.629 67.576,318.730 67.576 C 318.822 67.576,319.570 67.973,320.392 68.459 C 329.594 73.894,341.222 76.582,342.990 73.683 C 344.228 71.652,343.147 70.514,339.199 69.693 C 324.436 66.625,317.379 60.731,316.597 50.815 C 315.332 34.779,329.817 24.799,350.022 27.787 M25.766 32.556 C 28.347 35.363,30.529 37.659,30.613 37.659 C 30.698 37.659,33.328 35.365,36.457 32.561 L 42.147 27.463 49.494 27.458 C 53.535 27.455,56.841 27.488,56.841 27.530 C 56.841 27.573,52.842 31.377,47.954 35.983 C 43.066 40.590,39.067 44.420,39.067 44.494 C 39.067 44.902,39.479 44.999,40.126 44.745 C 42.416 43.845,45.238 45.751,45.372 48.287 C 45.408 48.975,45.509 49.613,45.596 49.705 C 45.683 49.797,45.755 50.037,45.755 50.238 C 45.755 50.653,46.731 51.634,51.122 55.631 C 56.883 60.874,71.017 73.814,72.063 74.803 C 72.644 75.351,75.068 77.573,77.450 79.739 C 79.832 81.905,84.126 85.816,86.991 88.429 L 92.201 93.181 92.207 134.228 L 92.213 175.276 46.502 175.231 L 0.792 175.187 0.747 144.435 L 0.703 113.682 13.188 113.682 C 21.321 113.682,25.710 113.621,25.781 113.506 C 25.841 113.410,26.126 113.330,26.415 113.330 C 27.631 113.330,29.292 111.186,29.447 109.416 C 29.567 108.047,29.760 107.597,30.472 107.022 C 30.832 106.732,30.953 106.509,30.879 106.276 C 30.821 106.093,30.897 105.725,31.047 105.457 C 31.196 105.190,31.565 103.506,31.866 101.716 C 32.166 99.925,32.677 97.434,33.000 96.180 C 33.323 94.925,33.549 93.837,33.502 93.761 C 33.455 93.685,33.580 93.044,33.778 92.335 C 33.979 91.621,34.140 90.522,34.140 89.869 C 34.140 89.147,34.341 87.890,34.660 86.624 C 35.441 83.522,35.824 81.248,35.579 81.166 C 34.973 80.964,34.618 80.437,34.477 79.533 C 34.393 78.995,33.976 77.879,33.526 76.991 C 32.452 74.866,31.439 70.840,31.556 69.160 C 31.656 67.724,32.138 64.520,32.376 63.704 C 32.552 63.103,28.179 55.961,27.635 55.961 C 27.507 55.961,16.764 68.594,4.365 83.326 C 3.143 84.778,1.862 86.282,1.519 86.670 L 0.895 87.374 0.887 76.171 L 0.880 64.969 10.779 56.005 C 16.223 51.075,20.774 46.925,20.893 46.782 C 21.072 46.565,19.832 44.945,13.458 37.067 C 9.250 31.867,5.807 27.576,5.807 27.532 C 5.807 27.489,9.242 27.453,13.440 27.453 L 21.072 27.453 25.766 32.556 M98.372 60.713 L 98.372 93.973 112.451 93.973 L 126.529 93.973 126.529 82.094 L 126.529 70.216 132.776 70.216 L 139.023 70.216 139.023 82.094 L 139.023 93.973 153.014 93.973 L 167.004 93.973 167.004 60.713 L 167.004 27.453 153.014 27.453 L 139.023 27.453 139.023 37.484 L 139.023 47.514 132.776 47.514 L 126.529 47.514 126.529 37.484 L 126.529 27.453 112.451 27.453 L 98.372 27.453 98.372 60.713 M125.649 38.363 L 125.649 48.394 132.776 48.394 L 139.903 48.394 139.903 38.363 L 139.903 28.333 153.014 28.333 L 166.124 28.333 166.124 60.713 L 166.124 93.093 153.014 93.093 L 139.903 93.093 139.903 81.214 L 139.903 69.336 132.776 69.336 L 125.649 69.336 125.649 81.214 L 125.649 93.093 112.451 93.093 L 99.252 93.093 99.252 60.713 L 99.252 28.333 112.451 28.333 L 125.649 28.333 125.649 38.363 M187.486 29.115 C 189.324 30.826,195.715 31.599,199.384 30.553 C 199.916 30.401,200.530 30.226,200.748 30.164 L 201.145 30.051 201.100 59.322 L 201.056 88.592 198.504 89.539 C 197.101 90.060,194.473 91.073,192.664 91.790 L 189.375 93.093 182.061 93.093 L 174.747 93.093 174.747 60.713 L 174.747 28.333 180.696 28.333 L 186.646 28.333 187.486 29.115 M236.164 49.450 L 236.164 70.568 246.165 70.568 C 251.666 70.568,256.214 70.615,256.272 70.673 C 256.456 70.857,256.198 71.271,255.898 71.273 C 253.480 71.286,232.901 77.342,220.941 81.559 C 215.126 83.610,210.065 85.350,209.913 85.350 C 209.833 85.350,209.767 72.521,209.767 56.841 L 209.767 28.333 222.965 28.333 L 236.164 28.333 236.164 49.450 M290.541 49.449 L 290.541 70.565 300.616 70.610 L 310.691 70.656 310.736 79.234 C 310.773 86.039,310.736 87.813,310.560 87.813 C 310.074 87.813,303.152 83.286,292.125 75.759 C 289.270 73.810,285.554 71.275,283.867 70.127 L 280.801 68.038 276.592 68.342 C 274.277 68.509,270.747 68.842,268.747 69.082 C 266.748 69.322,264.875 69.537,264.584 69.559 L 264.056 69.600 264.012 48.966 L 263.967 28.333 277.254 28.333 L 290.541 28.333 290.541 49.449 M41.075 59.638 C 38.953 60.932,38.242 65.627,40.167 65.637 L 40.651 65.640 40.658 78.619 C 40.665 90.954,40.680 91.571,40.966 91.069 C 41.253 90.566,41.269 91.054,41.312 101.405 L 41.358 112.268 41.752 112.349 C 44.644 112.941,49.229 113.577,51.016 113.634 L 53.197 113.703 53.085 112.769 C 53.023 112.255,52.972 111.539,52.971 111.177 C 52.970 110.602,52.881 110.463,52.266 110.075 L 51.562 109.630 51.562 108.211 C 51.562 105.871,50.053 99.733,48.841 97.140 C 47.661 94.618,47.064 93.101,46.107 90.189 C 44.701 85.917,44.323 85.276,43.411 85.626 C 43.173 85.717,41.531 89.648,41.531 90.127 C 41.531 90.279,41.474 90.291,41.349 90.166 C 41.227 90.043,41.184 85.972,41.217 77.680 C 41.273 63.876,41.157 65.065,42.616 63.310 C 44.163 61.448,44.248 60.243,42.876 59.593 C 42.095 59.222,41.743 59.231,41.075 59.638 M283.372 70.623 C 284.847 71.621,288.429 74.062,291.333 76.046 C 309.124 88.205,310.985 89.332,323.537 95.554 C 350.912 109.124,359.633 111.677,388.737 114.642 C 395.696 115.351,396.082 115.405,396.959 115.793 C 401.346 117.734,398.642 121.616,393.835 120.278 C 386.862 118.336,379.150 117.570,362.868 117.203 C 346.268 116.828,336.943 116.158,328.493 114.731 L 325.530 114.231 324.270 113.306 C 311.084 103.630,289.696 91.527,280.158 88.344 C 266.823 83.894,257.171 84.482,225.341 91.685 C 204.326 96.441,204.424 96.414,191.201 101.275 C 187.342 102.694,186.115 103.143,177.773 106.185 C 163.197 111.502,160.187 111.522,146.728 106.392 C 136.002 102.304,129.638 102.774,117.730 108.533 C 115.842 109.446,113.252 110.659,111.974 111.228 C 108.856 112.616,107.048 113.537,105.368 114.590 C 100.396 117.706,95.749 117.624,95.940 114.424 C 96.130 111.229,97.894 109.444,101.902 108.393 C 102.982 108.109,105.024 107.389,106.442 106.792 C 107.859 106.195,110.009 105.294,111.219 104.790 C 113.758 103.731,116.016 102.651,119.805 100.683 C 121.284 99.914,124.109 98.646,126.082 97.864 C 134.777 94.419,134.848 94.425,145.974 99.651 C 158.098 105.345,165.235 105.216,177.927 99.070 C 185.068 95.612,191.008 93.059,197.427 90.687 C 204.191 88.188,210.408 85.946,214.430 84.555 C 216.753 83.752,220.911 82.304,223.669 81.338 C 243.519 74.386,260.522 70.269,273.559 69.257 C 275.495 69.106,277.396 68.957,277.783 68.925 C 278.170 68.893,278.982 68.854,279.588 68.837 L 280.690 68.808 283.372 70.623 M266.520 86.239 C 272.342 86.739,278.809 88.319,283.723 90.443 C 286.132 91.483,289.133 92.911,289.133 93.016 C 289.133 93.058,283.471 93.093,276.551 93.093 L 263.968 93.093 263.968 89.691 C 263.968 87.819,264.021 86.236,264.086 86.171 C 264.229 86.028,263.990 86.021,266.520 86.239 M256.313 89.837 L 256.313 93.005 239.521 93.050 C 230.285 93.074,222.766 93.057,222.811 93.012 C 223.452 92.372,253.749 86.515,255.785 86.638 L 256.313 86.670 256.313 89.837 M40.065 93.665 C 38.824 97.139,38.009 99.279,37.688 99.905 C 37.479 100.312,37.308 100.911,37.308 101.234 C 37.308 102.406,36.122 107.622,35.570 108.880 C 35.267 109.570,35.020 110.332,35.020 110.575 C 35.020 110.817,34.822 111.251,34.580 111.539 C 33.763 112.509,33.935 112.683,35.592 112.563 C 36.390 112.505,37.816 112.407,38.759 112.345 L 40.475 112.233 40.475 102.575 C 40.475 97.263,40.443 92.917,40.404 92.917 C 40.364 92.917,40.212 93.253,40.065 93.665 M53.498 94.954 C 53.498 95.478,53.698 95.975,54.294 96.933 C 54.816 97.772,55.128 98.498,55.198 99.041 C 55.257 99.496,55.386 99.970,55.484 100.094 C 55.606 100.248,55.596 100.445,55.451 100.714 C 55.238 101.114,56.173 105.768,56.953 108.184 C 57.194 108.933,57.214 109.232,57.055 109.750 C 56.822 110.508,57.091 111.186,57.826 111.695 C 58.077 111.868,58.711 112.387,59.235 112.846 L 60.189 113.682 63.266 113.682 C 66.901 113.682,66.752 113.895,64.969 111.242 C 64.212 110.116,61.389 105.908,58.695 101.892 C 53.006 93.411,53.498 94.067,53.498 94.954 M175.392 108.344 C 175.328 108.409,175.275 123.455,175.275 141.780 L 175.275 175.099 199.472 175.099 L 223.669 175.099 223.669 162.868 L 223.669 150.638 213.550 150.638 L 203.432 150.638 203.432 129.432 L 203.432 108.227 189.471 108.227 C 181.792 108.227,175.457 108.280,175.392 108.344 M229.652 141.663 L 229.652 175.099 243.643 175.099 L 257.633 175.099 257.633 141.663 L 257.633 108.227 243.643 108.227 L 229.652 108.227 229.652 141.663 M146.858 110.999 C 148.496 115.289,148.929 116.426,150.019 119.314 C 150.659 121.007,151.411 122.987,151.692 123.713 C 151.973 124.439,152.727 126.419,153.368 128.113 C 156.189 135.563,157.539 139.113,159.359 143.863 C 160.675 147.299,161.859 150.417,163.399 154.509 C 163.818 155.623,164.648 157.800,165.244 159.349 C 165.840 160.897,166.670 163.075,167.088 164.188 C 167.506 165.301,168.299 167.400,168.851 168.852 C 169.402 170.304,170.082 172.105,170.363 172.855 L 170.872 174.219 156.660 174.219 L 142.447 174.219 141.283 169.952 L 140.119 165.684 132.335 165.684 L 124.550 165.684 123.872 167.972 C 123.500 169.230,122.945 171.150,122.640 172.239 L 122.085 174.219 109.085 174.219 C 100.653 174.219,96.084 174.158,96.084 174.045 C 96.084 173.950,97.001 171.475,98.122 168.546 C 99.243 165.617,100.979 161.082,101.979 158.469 C 102.979 155.856,104.827 151.025,106.085 147.734 C 107.343 144.443,110.205 136.960,112.446 131.104 C 114.686 125.249,117.438 118.042,118.562 115.090 C 119.685 112.138,120.680 109.624,120.773 109.503 C 120.904 109.330,123.674 109.283,133.571 109.283 L 146.202 109.283 146.858 110.999 M202.595 130.444 L 202.640 151.606 212.714 151.651 L 222.789 151.697 222.789 162.958 L 222.789 174.219 199.472 174.219 L 176.155 174.219 176.155 141.868 C 176.155 124.075,176.208 109.465,176.272 109.400 C 176.337 109.336,182.276 109.283,189.470 109.283 L 202.550 109.283 202.595 130.444 M256.753 141.751 L 256.753 174.219 243.643 174.219 L 230.532 174.219 230.532 141.751 L 230.532 109.283 243.643 109.283 L 256.753 109.283 256.753 141.751 M291.606 112.978 C 293.180 118.599,298.514 137.715,299.451 141.091 C 300.396 144.499,300.686 144.872,301.162 143.291 C 301.300 142.831,302.061 140.277,302.852 137.615 C 303.644 134.954,304.718 131.351,305.238 129.608 C 306.084 126.776,307.883 120.715,310.382 112.275 L 311.241 109.371 314.329 109.323 L 317.417 109.275 320.205 111.232 C 321.739 112.309,323.456 113.546,324.021 113.980 C 325.325 114.984,326.519 115.272,332.295 115.980 C 333.241 116.096,334.053 116.253,334.101 116.330 C 334.174 116.449,332.953 119.748,329.966 127.497 C 329.593 128.465,328.441 131.474,327.406 134.184 C 326.371 136.894,325.053 140.339,324.476 141.839 C 323.151 145.290,322.520 146.936,320.225 152.926 C 315.814 164.440,313.933 169.361,313.045 171.711 L 312.099 174.218 299.507 174.219 L 286.916 174.219 286.684 173.559 C 286.556 173.196,286.073 171.909,285.611 170.700 C 285.149 169.490,284.319 167.312,283.765 165.860 C 283.212 164.408,282.301 162.033,281.742 160.581 C 281.182 159.129,279.876 155.724,278.840 153.014 C 277.803 150.304,276.772 147.611,276.547 147.030 C 276.322 146.450,274.897 142.728,273.381 138.759 C 271.865 134.791,269.806 129.406,268.805 126.793 C 261.910 108.791,262.209 109.578,262.209 109.414 C 262.209 109.341,268.596 109.301,276.402 109.326 L 290.596 109.371 291.606 112.978 M388.737 111.560 C 388.737 112.813,388.678 113.873,388.605 113.916 C 387.917 114.327,360.058 110.059,359.446 109.449 C 359.341 109.345,364.745 109.283,374.008 109.283 L 388.737 109.283 388.737 111.560 M347.206 117.370 C 351.463 117.579,354.897 117.686,364.540 117.912 C 375.683 118.172,384.110 118.827,388.344 119.762 L 388.742 119.850 388.696 125.257 L 388.649 130.664 378.575 130.710 L 368.500 130.755 368.500 132.776 L 368.500 134.796 376.639 134.842 L 384.778 134.888 384.824 142.321 L 384.870 149.755 376.729 149.800 L 368.588 149.846 368.588 151.958 L 368.588 154.070 379.322 154.158 L 390.057 154.245 390.057 164.276 L 390.057 174.307 366.168 174.352 L 342.279 174.396 342.279 145.700 L 342.279 117.004 343.027 117.103 C 343.438 117.157,345.319 117.277,347.206 117.370 M47.377 122.036 C 45.564 122.602,44.748 123.829,44.577 126.248 L 44.470 127.761 43.441 127.761 L 42.411 127.761 42.411 129.872 L 42.411 131.984 43.467 131.984 L 44.523 131.984 44.523 137.352 L 44.523 142.719 47.338 142.719 L 50.154 142.719 50.154 137.352 L 50.154 131.984 51.582 131.984 C 52.979 131.984,53.008 131.993,52.900 132.380 C 51.845 136.173,52.845 139.768,55.489 141.683 L 56.190 142.191 54.578 142.191 L 52.967 142.191 53.012 152.442 L 53.058 162.692 55.818 162.741 L 58.579 162.789 58.634 158.253 C 58.701 152.730,58.949 152.046,60.889 152.046 C 62.621 152.046,62.716 152.335,62.823 157.941 L 62.912 162.692 65.728 162.692 L 68.544 162.692 68.582 157.501 C 68.602 154.646,68.622 152.231,68.625 152.134 C 68.629 152.030,69.058 151.982,69.669 152.016 L 70.706 152.075 70.779 156.064 C 70.898 162.617,72.183 163.784,78.312 162.905 C 79.822 162.688,79.801 162.723,79.580 160.775 C 79.344 158.699,79.371 158.740,78.425 158.957 C 76.564 159.383,76.375 159.020,76.375 155.033 L 76.375 152.059 77.915 152.009 L 79.454 151.958 79.454 149.934 L 79.454 147.910 77.915 147.859 L 76.375 147.809 76.375 145.088 C 76.375 143.591,76.335 142.367,76.286 142.367 C 76.238 142.367,74.991 142.993,73.515 143.757 L 70.832 145.148 70.780 146.476 L 70.729 147.805 69.724 147.858 L 68.720 147.910 68.632 149.758 L 68.544 151.606 68.230 150.707 C 67.054 147.339,62.651 146.468,59.539 148.988 C 59.136 149.315,58.760 149.582,58.703 149.582 C 58.647 149.582,58.601 148.095,58.601 146.278 L 58.601 142.974 60.470 143.043 C 64.727 143.201,67.451 142.098,69.014 139.586 C 69.476 138.843,69.670 138.919,66.586 138.639 L 63.924 138.398 63.261 138.971 C 61.420 140.562,58.946 139.683,58.331 137.220 L 58.211 136.736 63.937 136.736 C 70.559 136.736,69.954 136.956,69.690 134.638 C 69.128 129.725,66.494 127.526,61.153 127.512 C 57.455 127.503,55.204 128.538,53.628 130.973 L 53.058 131.854 53.008 129.808 L 52.958 127.761 51.556 127.761 C 49.997 127.761,49.988 127.751,50.334 126.504 C 50.596 125.560,50.910 125.385,52.333 125.385 L 53.577 125.385 53.870 123.801 C 54.031 122.930,54.139 122.191,54.108 122.158 C 53.763 121.785,48.488 121.689,47.377 122.036 M20.238 132.417 L 20.238 142.713 24.769 142.760 L 29.300 142.807 29.351 144.435 L 29.402 146.062 32.214 146.062 L 35.026 146.062 34.979 141.883 L 34.932 137.703 30.842 137.656 L 26.752 137.609 26.707 129.913 L 26.661 122.217 23.449 122.169 L 20.238 122.121 20.238 132.417 M35.900 124.065 L 35.900 126.001 38.715 126.001 L 41.531 126.001 41.531 124.065 L 41.531 122.129 38.715 122.129 L 35.900 122.129 35.900 124.065 M35.900 135.240 L 35.900 142.719 38.715 142.719 L 41.531 142.719 41.531 135.240 L 41.531 127.761 38.715 127.761 L 35.900 127.761 35.900 135.240 M62.638 131.252 C 63.326 131.755,63.723 132.401,63.828 133.187 L 63.927 133.920 61.088 133.920 C 59.526 133.920,58.249 133.895,58.249 133.864 C 58.249 131.652,60.971 130.032,62.638 131.252 M132.336 135.232 C 132.336 135.307,131.687 138.257,129.883 146.378 C 129.490 148.149,129.168 149.634,129.168 149.678 C 129.168 149.816,135.655 149.765,135.734 149.626 C 135.775 149.553,135.470 147.989,135.056 146.150 C 134.642 144.311,133.926 141.084,133.465 138.979 C 132.798 135.939,132.336 134.404,132.336 135.232 M132.873 141.263 C 133.088 142.205,133.328 143.096,133.408 143.243 C 133.644 143.681,134.448 147.426,134.448 148.090 L 134.448 148.702 132.421 148.702 L 130.394 148.702 130.501 148.218 C 130.561 147.952,130.640 147.615,130.677 147.470 C 130.715 147.325,130.906 146.263,131.103 145.110 C 131.299 143.958,131.530 142.928,131.616 142.823 C 131.702 142.717,131.915 141.938,132.090 141.091 C 132.477 139.219,132.404 139.203,132.873 141.263 M12.361 152.442 L 12.407 162.692 20.414 162.692 L 28.421 162.692 28.421 160.229 L 28.421 157.765 23.537 157.718 L 18.654 157.672 18.654 150.210 C 18.654 146.106,18.606 142.622,18.547 142.469 C 18.455 142.230,18.008 142.191,15.378 142.191 L 12.316 142.191 12.361 152.442 M40.495 147.669 C 33.235 148.875,34.264 162.077,41.618 162.077 C 43.149 162.077,44.328 161.677,45.289 160.831 L 46.106 160.111 46.106 161.815 C 46.106 163.002,46.022 163.697,45.829 164.104 C 45.139 165.557,42.490 165.628,41.687 164.214 C 41.415 163.737,41.314 163.704,39.487 163.507 C 38.433 163.393,37.235 163.253,36.824 163.196 L 36.076 163.092 36.076 164.113 C 36.076 166.981,38.212 168.487,42.597 168.710 C 47.472 168.959,50.048 167.892,51.368 165.076 L 51.826 164.100 51.826 156.005 L 51.826 147.910 49.274 147.910 L 46.722 147.910 46.634 148.934 L 46.546 149.957 45.930 149.315 C 44.905 148.245,42.550 147.269,41.531 147.492 C 41.483 147.503,41.017 147.582,40.495 147.669 M29.471 148.038 C 29.423 148.161,29.405 151.509,29.430 155.478 L 29.476 162.692 32.204 162.692 L 34.932 162.692 34.932 155.301 L 34.932 147.910 32.244 147.862 C 30.190 147.825,29.537 147.866,29.471 148.038 M44.883 152.090 C 46.649 153.280,46.719 156.811,44.998 157.860 C 43.516 158.764,41.768 157.991,41.350 156.247 C 40.595 153.100,42.702 150.621,44.883 152.090 M56.722 165.853 C 55.708 166.294,55.202 167.619,55.594 168.807 C 56.185 170.595,58.508 170.890,59.580 169.313 L 60.009 168.682 60.009 169.427 C 60.009 170.104,60.049 170.172,60.449 170.172 C 60.865 170.172,60.889 170.119,60.889 169.204 L 60.889 168.236 61.769 168.236 L 62.648 168.236 62.648 169.204 C 62.648 170.119,62.672 170.172,63.088 170.172 L 63.528 170.172 63.528 167.972 L 63.528 165.772 63.088 165.772 C 62.677 165.772,62.648 165.830,62.648 166.662 L 62.648 167.551 61.813 167.498 L 60.977 167.444 60.923 166.608 C 60.846 165.405,60.061 165.332,59.975 166.520 L 59.921 167.268 59.601 166.682 C 59.076 165.720,57.844 165.365,56.722 165.853 M54.377 167.510 C 54.377 168.841,54.316 169.300,54.114 169.468 C 53.806 169.723,53.322 169.433,53.322 168.994 C 53.322 168.629,52.548 168.777,52.475 169.156 C 52.386 169.626,53.218 170.348,53.850 170.348 C 54.948 170.348,55.257 169.749,55.257 167.628 L 55.257 165.772 54.817 165.772 C 54.378 165.772,54.377 165.774,54.377 167.510 M64.056 167.972 C 64.056 170.054,64.075 170.172,64.408 170.172 C 64.726 170.172,64.760 170.054,64.760 168.950 C 64.760 167.326,64.904 167.314,65.822 168.862 C 66.491 169.990,66.666 170.172,67.087 170.172 L 67.576 170.172 67.576 167.960 C 67.576 165.766,67.573 165.748,67.180 165.804 C 66.819 165.855,66.776 165.977,66.696 167.165 C 66.597 168.626,66.619 168.632,65.568 166.872 C 65.050 166.005,64.820 165.772,64.484 165.772 L 64.056 165.772 64.056 167.972 M69.258 166.163 C 68.915 166.653,68.911 166.998,69.244 167.474 C 69.475 167.803,69.475 167.871,69.244 168.063 C 68.794 168.437,68.913 169.562,69.447 169.983 C 70.799 171.046,72.497 169.486,71.515 168.084 C 71.306 167.785,71.283 167.626,71.427 167.482 C 71.713 167.196,71.667 166.369,71.347 166.049 C 70.907 165.609,69.595 165.681,69.258 166.163 M74.219 166.370 C 73.596 166.921,73.296 167.677,73.779 167.480 C 74.672 167.115,74.615 167.035,74.615 168.657 C 74.615 170.155,74.620 170.172,75.055 170.172 L 75.495 170.172 75.495 167.972 C 75.495 165.448,75.399 165.327,74.219 166.370 M76.571 166.227 C 76.109 166.814,76.106 166.939,76.553 167.056 C 76.790 167.117,76.969 167.033,77.093 166.802 C 77.221 166.562,77.424 166.472,77.751 166.509 C 78.519 166.598,78.453 167.196,77.576 168.086 C 75.758 169.931,75.767 170.201,77.651 170.135 C 79.301 170.077,79.822 169.608,78.355 169.502 C 77.440 169.435,77.440 169.424,78.305 168.486 C 78.689 168.069,79.055 167.519,79.119 167.263 C 79.431 166.022,77.385 165.191,76.571 166.227 M58.621 166.848 C 59.050 167.277,59.025 168.771,58.582 169.205 C 57.698 170.070,56.489 169.385,56.489 168.019 C 56.489 166.584,57.695 165.922,58.621 166.848 M70.866 166.765 C 71.035 167.207,70.402 167.618,70.068 167.283 C 69.929 167.145,69.863 166.906,69.922 166.754 C 70.062 166.388,70.724 166.397,70.866 166.765 M72.183 167.400 C 72.220 167.660,72.360 167.796,72.591 167.796 C 72.822 167.796,72.963 167.660,72.999 167.400 C 73.046 167.075,72.972 167.004,72.591 167.004 C 72.210 167.004,72.137 167.075,72.183 167.400 M70.919 168.588 C 71.300 169.298,70.460 169.993,69.899 169.432 C 69.457 168.990,69.786 168.236,70.421 168.236 C 70.591 168.236,70.816 168.394,70.919 168.588 M72.151 169.820 C 72.151 170.078,72.269 170.172,72.591 170.172 C 72.914 170.172,73.031 170.078,73.031 169.820 C 73.031 169.562,72.914 169.468,72.591 169.468 C 72.269 169.468,72.151 169.562,72.151 169.820 " stroke="none" fill="#ffffff" fill-rule="evenodd"></path></g></svg>