<svg id="svg" version="1.1" xmlns="http://www.w3.org/2000/svg" xmlns:xlink="http://www.w3.org/1999/xlink" width="400" height="400" viewBox="0, 0, 400,400"><g id="svgg"><path id="path0" d="M91.797 200.000 L 91.797 373.828 200.000 373.828 L 308.203 373.828 308.203 200.000 L 308.203 26.172 200.000 26.172 L 91.797 26.172 91.797 200.000 M305.762 129.004 L 305.861 228.906 268.723 228.906 L 231.585 228.906 229.415 227.051 C 223.915 222.349,224.162 222.779,224.826 219.038 C 224.982 218.158,224.915 217.361,224.660 217.053 C 224.425 216.770,223.445 213.063,222.481 208.815 C 221.518 204.567,220.632 200.783,220.513 200.406 C 220.393 200.028,220.559 199.500,220.882 199.232 C 221.402 198.801,221.403 198.649,220.891 197.918 C 220.573 197.464,220.313 196.381,220.313 195.512 C 220.312 193.954,220.077 193.407,217.779 189.623 C 217.041 188.409,216.522 186.911,216.366 185.550 C 216.231 184.367,215.586 181.289,214.934 178.711 C 214.281 176.133,213.368 171.650,212.904 168.750 C 212.440 165.850,211.889 162.820,211.681 162.018 C 211.191 160.136,211.812 158.896,214.636 156.117 C 216.478 154.305,216.825 153.713,217.335 151.513 C 217.657 150.125,218.477 147.250,219.158 145.125 C 220.235 141.763,220.359 140.953,220.110 138.892 C 219.952 137.589,219.797 134.326,219.764 131.641 C 219.729 128.795,219.505 126.299,219.227 125.658 C 218.965 125.053,218.750 123.937,218.750 123.177 C 218.750 121.221,216.903 115.950,213.707 108.786 C 210.485 101.563,210.534 101.625,206.465 99.461 C 198.534 95.240,197.036 94.419,196.544 94.019 C 195.718 93.348,196.331 88.220,197.499 86.024 C 198.443 84.248,198.740 81.724,198.085 81.035 C 197.891 80.831,197.670 79.345,197.594 77.732 C 197.349 72.551,190.659 67.364,186.403 69.056 C 184.388 69.857,182.011 71.716,182.175 72.363 C 182.276 72.760,182.129 73.047,181.826 73.047 C 181.058 73.047,180.833 74.200,181.253 75.977 C 181.757 78.109,181.733 80.756,181.208 81.081 C 180.543 81.491,181.144 84.357,182.244 86.027 C 182.771 86.828,183.203 87.920,183.203 88.454 C 183.203 88.987,183.530 90.266,183.930 91.294 C 184.871 93.717,184.796 93.860,181.627 95.711 C 180.152 96.573,178.845 97.439,178.723 97.637 C 178.601 97.834,177.494 98.288,176.262 98.646 C 172.645 99.698,171.648 101.059,169.401 108.020 C 168.362 111.236,167.427 114.131,167.323 114.453 C 167.219 114.775,166.969 116.477,166.769 118.235 C 166.568 119.992,166.125 122.518,165.785 123.848 C 165.071 126.633,165.099 126.857,167.214 135.285 C 168.753 141.417,169.431 143.198,171.247 145.873 C 171.845 146.755,172.289 148.131,172.466 149.650 C 172.738 151.998,173.203 152.806,174.819 153.741 C 175.589 154.186,174.726 159.645,172.573 167.965 C 172.156 169.574,171.762 172.475,171.696 174.410 C 171.630 176.395,171.302 178.675,170.945 179.639 C 170.597 180.579,170.312 181.901,170.313 182.576 C 170.313 183.252,169.948 185.120,169.503 186.727 C 168.488 190.385,167.542 194.978,166.204 202.734 C 165.630 206.064,164.900 209.346,164.581 210.028 C 164.263 210.709,164.060 211.622,164.130 212.057 C 164.213 212.571,163.757 213.307,162.825 214.162 C 161.349 215.516,161.209 215.935,160.727 220.437 C 160.424 223.267,156.866 227.648,154.347 228.292 C 153.564 228.492,139.867 228.713,123.730 228.787 L 94.531 228.921 94.531 128.913 L 94.531 28.905 200.098 29.003 L 305.664 29.102 305.762 129.004 M191.793 103.709 C 195.114 105.426,194.889 107.883,190.980 112.580 C 187.748 116.464,187.874 115.045,187.898 147.358 C 187.915 169.848,187.815 175.962,187.417 176.659 C 187.002 177.385,186.879 172.295,186.713 147.656 C 186.602 131.221,186.470 117.734,186.420 117.686 C 186.369 117.637,185.817 117.700,185.192 117.825 C 182.080 118.447,181.593 113.664,184.231 108.387 C 186.750 103.350,188.730 102.125,191.793 103.709 M195.480 164.941 C 196.230 165.606,197.242 168.092,199.627 175.133 C 201.362 180.255,203.921 186.875,205.315 189.845 C 208.606 196.857,212.239 211.096,212.093 216.406 C 211.995 219.961,211.963 219.865,213.459 220.578 C 215.070 221.346,215.325 221.842,215.442 224.439 C 215.491 225.527,215.654 226.978,215.804 227.662 L 216.078 228.906 211.031 228.906 C 205.900 228.906,189.409 226.675,188.606 225.872 C 187.761 225.027,188.412 174.583,189.297 172.266 C 192.611 163.594,193.187 162.911,195.480 164.941 M186.328 203.508 L 186.328 225.766 185.449 225.950 C 183.957 226.261,171.758 226.927,171.416 226.716 C 170.896 226.394,171.027 225.997,172.259 224.180 C 172.899 223.234,173.426 222.060,173.430 221.569 C 173.434 221.079,173.864 219.835,174.385 218.807 C 175.791 216.034,178.511 204.245,178.519 200.890 C 178.522 200.078,178.983 198.447,179.544 197.266 C 180.408 195.447,182.588 189.740,185.027 182.910 C 186.219 179.574,186.328 181.302,186.328 203.508 M214.073 248.070 C 218.235 248.589,218.078 248.360,217.266 252.745 L 216.580 256.445 213.530 256.445 C 209.868 256.445,208.984 257.134,208.984 259.988 L 208.984 261.686 212.012 261.800 L 215.039 261.914 215.234 266.602 C 215.424 271.144,215.447 271.247,215.999 269.939 C 220.071 260.278,240.140 257.731,248.748 265.784 C 252.074 268.894,253.571 272.593,254.106 279.024 L 254.389 282.422 241.010 282.422 L 227.632 282.422 227.850 284.048 C 228.552 289.285,234.982 291.202,239.257 287.448 L 240.557 286.307 244.985 286.716 C 254.313 287.578,253.932 287.358,251.512 290.495 C 247.643 295.511,244.009 296.953,234.668 297.183 L 228.125 297.344 228.125 304.727 C 228.125 308.787,228.190 312.109,228.269 312.109 C 228.348 312.109,229.580 311.326,231.008 310.368 C 238.377 305.427,247.330 307.262,250.200 314.302 L 251.137 316.602 251.252 312.500 L 251.367 308.398 253.809 308.282 L 256.250 308.166 256.250 305.114 L 256.250 302.063 262.463 298.883 C 265.881 297.134,268.869 295.703,269.104 295.703 C 269.395 295.703,269.531 297.689,269.531 301.953 L 269.531 308.203 273.047 308.203 L 276.563 308.203 276.563 313.215 L 276.563 318.227 274.316 318.094 C 273.081 318.021,271.499 318.058,270.801 318.178 L 269.531 318.395 269.531 325.195 C 269.531 334.164,269.914 334.905,274.063 333.975 C 276.311 333.472,276.169 333.303,276.591 336.981 C 276.783 338.663,277.020 340.607,277.117 341.301 C 277.360 343.048,275.637 343.496,268.546 343.529 C 257.863 343.579,256.250 341.370,256.250 326.687 C 256.250 322.107,256.118 318.344,255.957 318.325 C 255.438 318.264,253.349 318.254,252.344 318.307 L 251.367 318.359 251.367 330.566 L 251.367 342.773 244.727 342.773 L 238.086 342.773 237.891 331.836 C 237.676 319.789,237.614 319.475,235.280 318.499 C 233.689 317.835,231.973 318.083,230.380 319.209 C 228.479 320.553,228.125 322.793,228.125 333.479 L 228.125 342.988 221.582 342.881 L 215.039 342.773 215.039 319.141 L 215.039 295.508 218.478 295.395 L 221.917 295.281 219.447 292.856 C 214.447 287.946,212.704 281.608,214.402 274.512 L 215.127 271.484 212.061 271.484 L 208.995 271.484 208.892 284.082 L 208.789 296.680 202.148 296.680 L 195.508 296.680 195.313 284.180 L 195.117 271.680 192.664 271.563 L 190.211 271.446 190.320 266.680 L 190.430 261.914 192.871 261.798 L 195.313 261.681 195.313 260.014 C 195.313 249.786,200.642 246.392,214.073 248.070 M154.203 266.699 L 154.305 284.766 163.871 284.766 L 173.438 284.766 173.440 285.645 C 173.442 286.128,173.461 290.479,173.483 295.313 L 173.523 304.102 166.840 304.208 L 160.156 304.315 160.156 300.595 C 160.156 297.886,160.024 296.872,159.668 296.863 C 159.399 296.856,154.762 296.861,149.363 296.874 C 140.679 296.896,139.518 296.826,139.304 296.269 C 138.971 295.401,138.997 249.023,139.331 248.690 C 139.479 248.542,142.863 248.469,146.851 248.527 L 154.102 248.633 154.203 266.699 M188.672 253.134 L 188.672 257.831 182.129 257.724 L 175.586 257.617 175.474 253.542 C 175.320 247.964,174.695 248.438,182.214 248.438 L 188.672 248.438 188.672 253.134 M188.578 279.199 L 188.477 296.680 182.031 296.680 L 175.586 296.680 175.484 279.688 C 175.428 270.342,175.466 262.476,175.569 262.207 C 175.709 261.844,177.409 261.719,182.218 261.719 L 188.680 261.719 188.578 279.199 M230.855 270.020 C 229.031 271.261,228.102 272.662,227.848 274.555 L 227.629 276.192 234.029 276.084 L 240.430 275.977 240.307 274.838 C 239.803 270.156,234.573 267.489,230.855 270.020 M135.453 313.379 L 135.555 331.250 146.879 331.250 L 158.203 331.250 158.203 337.113 L 158.203 342.976 139.551 342.875 L 120.898 342.773 120.798 319.034 L 120.697 295.295 128.024 295.402 L 135.352 295.508 135.453 313.379 M195.231 308.922 C 196.153 309.404,197.597 310.487,198.439 311.330 C 200.090 312.981,200.467 312.899,200.239 310.940 C 199.915 308.160,199.816 308.203,206.505 308.203 L 212.528 308.203 212.416 327.441 L 212.305 346.680 211.159 348.942 C 207.959 355.262,200.724 357.818,189.194 356.701 C 180.220 355.832,175.796 352.282,175.785 345.942 L 175.781 343.642 177.832 343.873 C 178.960 344.000,181.777 344.313,184.092 344.568 C 188.090 345.008,188.335 345.087,188.958 346.142 C 189.916 347.764,191.871 348.561,194.384 348.352 C 198.049 348.048,199.219 346.180,199.219 340.628 L 199.219 337.091 197.240 338.655 C 184.314 348.873,168.862 331.191,176.536 314.964 C 179.480 308.740,188.996 305.664,195.231 308.922 M173.550 311.328 C 173.576 312.939,173.561 320.722,173.517 328.623 L 173.438 342.988 166.895 342.881 L 160.352 342.773 160.250 325.977 C 160.194 316.738,160.234 308.956,160.339 308.682 C 160.485 308.300,162.042 308.209,167.017 308.291 L 173.504 308.398 173.550 311.328 M191.016 318.049 C 186.967 320.113,186.783 329.243,190.742 331.656 C 194.889 334.185,199.219 330.786,199.219 325.000 C 199.219 319.153,195.325 315.853,191.016 318.049 M219.469 352.554 C 219.286 357.532,217.880 358.924,214.244 357.729 C 212.827 357.264,211.543 355.514,212.163 354.895 C 212.779 354.278,214.844 354.232,214.844 354.834 C 214.844 355.208,215.164 355.469,215.625 355.469 C 216.344 355.469,216.406 355.208,216.406 352.174 L 216.406 348.880 217.480 348.745 C 219.531 348.486,219.614 348.645,219.469 352.554 M227.394 349.049 C 230.941 350.884,229.975 357.232,226.035 357.971 C 221.826 358.761,218.953 355.432,220.352 351.386 C 221.254 348.776,224.673 347.642,227.394 349.049 M233.203 350.881 C 233.203 352.763,235.690 352.310,235.872 350.394 C 236.025 348.778,236.347 348.518,237.912 348.748 L 239.087 348.920 238.977 353.269 L 238.867 357.617 237.500 357.617 C 236.171 357.617,236.129 357.571,236.013 355.957 C 235.897 354.355,235.847 354.297,234.570 354.297 C 233.294 354.297,233.244 354.355,233.128 355.957 C 233.011 357.569,232.965 357.621,231.543 357.738 L 230.078 357.860 230.078 353.370 L 230.078 348.880 231.152 348.744 C 232.455 348.579,233.203 349.358,233.203 350.881 M244.091 350.814 C 245.744 353.221,246.094 353.223,246.094 350.823 C 246.094 348.788,246.521 348.316,248.009 348.705 C 248.780 348.907,248.828 349.180,248.828 353.366 L 248.828 357.813 247.321 357.813 C 245.923 357.813,245.704 357.650,244.294 355.566 L 242.773 353.320 242.656 355.566 L 242.539 357.813 241.191 357.813 L 239.844 357.813 239.844 353.353 C 239.844 348.629,239.912 348.466,241.762 348.742 C 242.446 348.845,243.201 349.516,244.091 350.814 M258.865 349.381 C 259.884 350.258,259.928 350.412,259.488 351.578 C 259.113 352.574,259.119 353.044,259.517 353.858 C 260.845 356.572,258.155 358.807,254.738 357.827 C 252.481 357.180,251.725 355.354,252.975 353.570 C 253.439 352.907,253.491 352.553,253.170 352.233 C 250.777 349.840,256.227 347.110,258.865 349.381 M269.141 353.150 L 269.141 357.862 267.871 357.740 C 266.617 357.619,266.601 357.590,266.531 355.469 C 266.492 354.287,266.448 353.023,266.433 352.660 C 266.409 352.070,266.295 352.057,265.360 352.542 C 263.241 353.642,262.950 351.675,265.048 350.437 C 265.805 349.990,266.527 349.358,266.653 349.031 C 266.784 348.689,267.360 348.438,268.011 348.438 L 269.141 348.438 269.141 353.150 M276.737 348.820 C 279.071 349.707,278.871 352.636,276.360 354.357 C 274.776 355.442,274.947 355.859,276.976 355.859 C 278.358 355.859,278.516 355.959,278.516 356.836 C 278.516 357.809,278.503 357.813,274.805 357.813 C 270.069 357.813,269.872 357.216,273.492 353.856 C 275.138 352.328,275.816 351.435,275.653 351.010 C 275.352 350.225,274.266 350.204,273.969 350.977 C 273.611 351.910,271.094 351.764,271.094 350.810 C 271.094 349.015,274.288 347.889,276.737 348.820 M255.469 351.201 C 255.469 351.760,255.679 351.970,256.148 351.880 C 257.166 351.684,257.280 350.391,256.279 350.391 C 255.720 350.391,255.469 350.641,255.469 351.201 M223.516 351.250 C 222.843 351.923,222.937 354.522,223.661 355.246 C 224.990 356.575,226.563 355.452,226.563 353.175 C 226.563 351.533,226.010 350.781,224.805 350.781 C 224.354 350.781,223.773 350.992,223.516 351.250 M262.891 352.564 C 262.891 353.898,262.838 353.951,261.624 353.833 C 259.513 353.629,259.589 351.172,261.706 351.172 C 262.803 351.172,262.891 351.274,262.891 352.564 M255.208 354.522 C 255.078 354.861,255.259 355.426,255.611 355.778 C 256.410 356.577,257.618 355.653,257.199 354.562 C 256.881 353.733,255.521 353.706,255.208 354.522 M262.820 356.570 C 262.940 357.822,262.901 357.862,261.651 357.742 C 260.328 357.614,259.844 356.845,260.316 355.615 C 260.783 354.400,262.681 355.123,262.820 356.570 " stroke="none" fill="#06060b" fill-rule="evenodd"></path><path id="path1" d="M108.291 31.934 C 109.666 33.599,112.701 37.334,115.037 40.234 C 118.661 44.735,124.377 51.769,126.623 54.490 C 126.978 54.921,129.233 57.734,131.633 60.742 C 134.034 63.750,136.292 66.568,136.651 67.003 C 137.011 67.439,138.005 68.670,138.861 69.738 C 139.716 70.806,140.551 71.738,140.716 71.810 C 141.823 72.291,140.167 74.111,131.549 81.888 C 126.342 86.586,119.091 93.142,115.435 96.456 C 98.477 111.833,97.368 112.831,95.796 114.135 L 94.531 115.184 94.531 141.214 C 94.531 162.772,94.620 167.155,95.047 166.727 C 95.577 166.197,109.821 149.397,118.164 139.463 C 120.742 136.393,123.039 133.685,123.269 133.444 C 123.498 133.204,126.034 130.195,128.905 126.758 C 131.776 123.320,134.752 119.794,135.519 118.922 C 136.286 118.050,137.319 116.852,137.813 116.259 C 138.307 115.667,140.505 113.059,142.696 110.463 C 144.887 107.868,148.241 103.880,150.148 101.603 C 154.949 95.871,156.248 94.484,156.607 94.706 C 156.907 94.891,160.537 100.146,165.689 107.854 L 168.197 111.606 169.740 106.892 C 171.614 101.167,172.814 99.649,176.262 98.646 C 177.494 98.288,178.601 97.834,178.723 97.637 C 178.845 97.439,180.152 96.573,181.627 95.711 C 184.796 93.860,184.871 93.717,183.930 91.294 C 183.530 90.266,183.203 88.987,183.203 88.454 C 183.203 87.920,182.771 86.828,182.244 86.027 C 181.144 84.357,180.543 81.491,181.208 81.081 C 181.733 80.756,181.757 78.109,181.253 75.977 C 180.833 74.200,181.058 73.047,181.826 73.047 C 182.131 73.047,182.275 72.762,182.173 72.363 C 182.050 71.888,182.470 71.389,183.549 70.725 C 185.045 69.806,185.071 69.756,184.253 69.348 C 182.978 68.713,182.973 67.615,184.239 66.469 C 184.851 65.915,187.109 63.785,189.258 61.735 C 191.406 59.685,195.534 55.810,198.430 53.125 C 201.326 50.439,205.281 46.741,207.219 44.906 C 209.157 43.070,212.588 39.822,214.844 37.687 C 217.100 35.552,220.088 32.705,221.484 31.360 L 224.023 28.916 206.784 28.911 L 189.545 28.906 188.034 30.378 C 186.782 31.597,172.834 44.128,167.446 48.875 C 166.622 49.601,165.404 50.679,164.739 51.270 C 163.233 52.609,163.253 52.610,161.907 51.074 C 160.757 49.761,154.371 42.811,147.498 35.392 C 145.329 33.050,143.203 30.636,142.773 30.027 L 141.992 28.920 123.892 28.913 L 105.792 28.906 108.291 31.934 M305.372 104.770 L 305.273 180.242 301.947 177.133 C 300.118 175.423,296.972 172.529,294.957 170.703 C 292.941 168.877,291.098 167.201,290.861 166.979 C 290.530 166.669,284.738 161.371,280.627 157.617 C 278.857 156.001,272.441 150.117,272.102 149.799 C 271.870 149.581,268.604 146.596,264.844 143.166 C 261.084 139.736,256.953 135.941,255.664 134.733 C 254.375 133.525,249.014 128.616,243.750 123.825 C 238.486 119.034,233.208 114.218,232.019 113.123 C 230.831 112.029,225.916 107.529,221.096 103.125 C 216.277 98.721,210.035 93.008,207.226 90.430 C 204.417 87.852,201.394 85.098,200.508 84.310 C 199.623 83.522,198.815 82.555,198.713 82.161 C 198.611 81.768,198.508 82.078,198.483 82.852 C 198.458 83.626,198.015 85.053,197.499 86.024 C 196.331 88.220,195.718 93.348,196.544 94.019 C 197.036 94.419,198.534 95.240,206.465 99.461 C 210.534 101.625,210.485 101.563,213.707 108.786 C 216.903 115.950,218.750 121.221,218.750 123.177 C 218.750 123.937,218.965 125.053,219.227 125.658 C 219.505 126.299,219.729 128.795,219.764 131.641 C 219.797 134.326,219.952 137.589,220.110 138.892 C 220.359 140.953,220.235 141.763,219.158 145.125 C 218.477 147.250,217.657 150.125,217.335 151.513 C 216.825 153.713,216.478 154.305,214.636 156.117 C 211.814 158.895,211.192 160.136,211.679 162.018 C 211.887 162.820,212.422 165.762,212.868 168.555 C 214.082 176.162,216.176 184.736,216.693 184.218 C 216.872 184.040,217.924 185.371,219.336 187.561 C 219.551 187.895,220.613 189.467,221.697 191.056 C 222.781 192.645,228.390 200.977,234.161 209.570 C 239.933 218.164,245.258 226.030,245.994 227.051 L 247.332 228.906 276.596 228.906 L 305.859 228.906 305.859 129.102 C 305.859 74.209,305.772 29.297,305.665 29.297 C 305.558 29.297,305.426 63.260,305.372 104.770 M186.119 205.273 C 186.119 216.660,186.169 221.262,186.230 215.500 C 186.291 209.738,186.291 200.421,186.230 194.797 C 186.169 189.172,186.119 193.887,186.119 205.273 M139.242 248.926 C 139.139 249.194,139.102 259.961,139.160 272.852 L 139.264 296.289 139.359 272.591 C 139.432 254.070,139.560 248.850,139.941 248.696 C 140.324 248.542,140.321 248.492,139.929 248.468 C 139.654 248.451,139.345 248.657,139.242 248.926 M154.086 267.188 C 154.086 276.963,154.137 280.962,154.199 276.074 C 154.261 271.187,154.261 263.188,154.199 258.301 C 154.137 253.413,154.086 257.412,154.086 267.188 M179.023 262.010 C 180.914 262.082,183.902 262.081,185.664 262.009 C 187.426 261.937,185.879 261.878,182.227 261.879 C 178.574 261.879,177.133 261.938,179.023 262.010 M191.706 262.002 C 192.408 262.089,193.463 262.087,194.050 261.998 C 194.637 261.909,194.063 261.838,192.773 261.840 C 191.484 261.842,191.004 261.915,191.706 262.002 M211.707 262.001 C 213.374 262.085,214.769 262.348,214.960 262.617 C 215.196 262.948,215.247 262.914,215.135 262.500 C 215.012 262.045,214.284 261.908,211.883 261.885 L 208.789 261.856 211.707 262.001 M218.530 266.504 L 217.383 267.773 218.652 266.626 C 219.351 265.995,219.922 265.424,219.922 265.357 C 219.922 265.055,219.600 265.321,218.530 266.504 M208.685 284.267 L 208.594 296.464 202.637 296.583 L 196.680 296.702 202.649 296.788 C 207.155 296.854,208.665 296.754,208.807 296.383 C 208.911 296.112,208.947 290.531,208.887 283.980 L 208.777 272.070 208.685 284.267 M213.793 279.102 C 213.795 280.391,213.868 280.871,213.955 280.169 C 214.042 279.467,214.040 278.412,213.951 277.825 C 213.862 277.238,213.791 277.813,213.793 279.102 M144.238 296.776 C 146.978 296.843,151.460 296.843,154.199 296.776 C 156.938 296.709,154.697 296.654,149.219 296.654 C 143.740 296.654,141.499 296.709,144.238 296.776 M178.809 296.775 C 180.581 296.847,183.481 296.847,185.254 296.775 C 187.026 296.703,185.576 296.643,182.031 296.643 C 178.486 296.643,177.036 296.703,178.809 296.775 M160.291 308.806 C 160.164 309.137,160.169 309.518,160.303 309.652 C 160.437 309.786,160.547 309.595,160.547 309.227 C 160.547 308.617,161.132 308.568,167.151 308.674 C 170.783 308.737,173.673 308.657,173.573 308.496 C 173.180 307.863,160.540 308.158,160.291 308.806 M203.437 308.494 C 205.219 308.567,208.032 308.566,209.687 308.493 C 211.341 308.420,209.883 308.361,206.445 308.361 C 203.008 308.362,201.654 308.421,203.437 308.494 M252.644 308.486 C 253.346 308.573,254.400 308.571,254.987 308.482 C 255.574 308.393,255.000 308.322,253.711 308.324 C 252.422 308.326,251.942 308.399,252.644 308.486 M271.594 308.491 C 272.621 308.571,274.203 308.570,275.109 308.489 C 276.016 308.407,275.176 308.341,273.242 308.342 C 271.309 308.343,270.567 308.410,271.594 308.491 M173.536 313.086 C 173.540 313.945,173.620 314.251,173.714 313.765 C 173.807 313.279,173.804 312.576,173.706 312.202 C 173.608 311.829,173.532 312.227,173.536 313.086 M251.171 331.329 C 251.064 337.710,251.111 342.796,251.276 342.631 C 251.440 342.466,251.528 337.245,251.471 331.029 L 251.366 319.727 251.171 331.329 M160.309 337.109 C 160.309 340.010,160.371 341.196,160.446 339.746 C 160.521 338.296,160.521 335.923,160.446 334.473 C 160.371 333.022,160.309 334.209,160.309 337.109 M235.918 350.283 C 235.811 351.190,235.872 351.784,236.054 351.602 C 236.236 351.420,236.324 350.678,236.249 349.952 C 236.117 348.665,236.109 348.673,235.918 350.283 M238.820 353.125 C 238.820 355.596,238.883 356.606,238.961 355.371 C 239.038 354.136,239.038 352.114,238.961 350.879 C 238.883 349.644,238.820 350.654,238.820 353.125 M260.314 352.731 C 260.338 353.362,260.595 353.726,261.043 353.765 C 261.481 353.804,261.526 353.761,261.164 353.647 C 260.851 353.548,260.523 353.083,260.435 352.613 C 260.304 351.908,260.283 351.929,260.314 352.731 M266.523 355.469 C 266.523 356.650,266.597 357.134,266.686 356.543 C 266.776 355.952,266.776 354.985,266.686 354.395 C 266.597 353.804,266.523 354.287,266.523 355.469 M232.919 355.859 C 232.919 356.826,232.995 357.222,233.088 356.738 C 233.181 356.255,233.181 355.464,233.088 354.980 C 232.995 354.497,232.919 354.893,232.919 355.859 M236.036 356.055 C 236.040 356.914,236.120 357.220,236.214 356.734 C 236.307 356.248,236.304 355.545,236.206 355.171 C 236.108 354.798,236.032 355.195,236.036 356.055 " stroke="none" fill="#fbcd07" fill-rule="evenodd"></path><path id="path2" d="M94.531 71.865 C 94.531 95.503,94.663 114.841,94.824 114.838 C 95.105 114.833,97.606 112.639,105.273 105.676 C 114.415 97.373,122.881 89.708,131.549 81.888 C 140.167 74.111,141.823 72.291,140.716 71.810 C 140.551 71.738,139.716 70.806,138.861 69.738 C 138.005 68.670,137.011 67.439,136.651 67.003 C 136.292 66.568,134.034 63.750,131.633 60.742 C 129.233 57.734,126.977 54.922,126.620 54.492 C 125.763 53.460,117.755 43.605,111.225 35.547 L 106.002 29.102 100.266 28.993 L 94.531 28.885 94.531 71.865 M142.188 29.251 C 142.188 29.440,143.630 31.154,145.394 33.059 C 147.157 34.965,149.237 37.227,150.017 38.086 C 150.796 38.945,153.540 41.934,156.114 44.727 C 158.689 47.520,161.296 50.376,161.907 51.074 C 163.263 52.621,163.218 52.620,164.871 51.161 C 167.157 49.144,171.046 45.669,177.350 40.011 C 180.683 37.018,184.682 33.446,186.236 32.072 C 187.791 30.698,189.063 29.424,189.063 29.240 C 189.063 29.056,178.516 28.906,165.625 28.906 C 152.352 28.906,142.188 29.056,142.188 29.251 M221.484 31.360 C 220.088 32.705,217.100 35.552,214.844 37.687 C 212.588 39.822,209.157 43.070,207.219 44.906 C 205.281 46.741,201.326 50.439,198.430 53.125 C 195.534 55.810,191.406 59.690,189.258 61.747 C 187.109 63.803,184.868 65.900,184.277 66.407 C 182.234 68.160,183.290 69.980,185.897 69.199 C 191.473 67.528,198.823 73.395,197.824 78.718 C 197.646 79.668,197.759 80.373,198.198 81.043 C 198.545 81.571,198.828 82.186,198.828 82.409 C 198.828 82.632,199.568 83.473,200.473 84.278 C 201.378 85.083,204.417 87.852,207.226 90.430 C 210.035 93.008,216.277 98.721,221.096 103.125 C 225.916 107.529,230.831 112.029,232.019 113.123 C 233.208 114.218,238.486 119.034,243.750 123.825 C 249.014 128.616,254.375 133.525,255.664 134.733 C 256.953 135.941,261.084 139.736,264.844 143.166 C 268.604 146.596,271.870 149.581,272.102 149.799 C 272.441 150.117,278.857 156.001,280.627 157.617 C 284.738 161.371,290.530 166.669,290.861 166.979 C 291.098 167.201,292.944 168.874,294.963 170.697 C 296.981 172.520,299.863 175.163,301.367 176.572 C 302.871 177.980,304.409 179.367,304.785 179.653 C 305.436 180.149,305.469 176.510,305.469 104.540 L 305.469 28.906 264.746 28.911 L 224.023 28.916 221.484 31.360 M154.957 95.988 C 154.220 96.798,152.056 99.325,150.148 101.603 C 148.241 103.880,144.887 107.868,142.696 110.463 C 140.505 113.059,138.307 115.667,137.813 116.259 C 137.319 116.852,136.286 118.050,135.519 118.922 C 134.752 119.794,131.776 123.320,128.905 126.758 C 126.034 130.195,123.498 133.204,123.269 133.444 C 123.039 133.685,120.742 136.393,118.164 139.463 C 109.821 149.397,95.577 166.197,95.047 166.727 C 94.629 167.146,94.531 173.061,94.531 198.075 L 94.531 228.906 123.414 228.906 C 142.249 228.906,152.382 228.770,152.539 228.516 C 152.672 228.301,153.364 228.125,154.077 228.125 C 155.174 228.125,155.764 227.712,157.902 225.446 L 160.429 222.766 160.838 219.108 C 161.231 215.590,161.300 215.406,162.654 214.268 C 163.614 213.462,164.063 212.759,164.063 212.059 C 164.063 211.495,164.307 210.440,164.606 209.716 C 164.905 208.991,165.717 205.146,166.410 201.172 C 167.102 197.197,168.264 191.518,168.991 188.552 C 169.718 185.586,170.313 182.664,170.313 182.058 C 170.313 181.453,170.596 180.188,170.942 179.248 C 171.293 178.293,171.561 176.419,171.549 175.000 C 171.538 173.604,171.948 170.615,172.460 168.359 C 174.545 159.181,175.437 154.117,174.994 153.969 C 173.553 153.489,172.624 152.066,172.402 150.000 C 172.246 148.544,171.698 147.017,170.703 145.262 C 168.994 142.247,168.494 140.796,166.620 133.398 C 165.094 127.376,164.967 125.840,165.786 123.353 C 166.089 122.433,166.448 120.537,166.584 119.141 C 166.719 117.744,167.104 115.418,167.440 113.972 L 168.049 111.343 164.027 105.378 C 155.661 92.972,156.711 94.059,154.957 95.988 M187.116 104.156 C 183.252 107.407,181.010 117.301,184.062 117.633 C 184.342 117.664,185.010 117.708,185.547 117.731 L 186.523 117.773 186.719 147.636 C 186.878 171.955,187.005 177.299,187.402 176.426 C 187.779 175.600,187.891 168.857,187.891 147.030 C 187.891 115.330,187.797 116.476,190.665 112.917 C 194.044 108.724,194.551 107.396,193.529 105.419 C 192.348 103.135,189.092 102.494,187.116 104.156 M192.686 164.526 C 192.456 164.808,191.414 167.148,190.372 169.727 L 188.477 174.414 188.477 200.192 L 188.477 225.970 191.211 226.430 C 203.744 228.537,206.752 228.911,211.169 228.909 L 215.892 228.906 215.586 227.051 C 215.418 226.030,215.270 224.460,215.258 223.561 C 215.237 222.088,215.073 221.818,213.599 220.827 L 211.963 219.727 211.903 215.820 C 211.858 212.887,211.530 210.649,210.586 206.836 C 209.895 204.043,208.975 200.302,208.542 198.523 C 208.110 196.744,206.555 192.701,205.088 189.539 C 203.620 186.376,201.058 179.746,199.394 174.805 C 197.730 169.863,196.087 165.524,195.743 165.161 C 194.867 164.239,193.204 163.893,192.686 164.526 M183.621 187.025 C 182.475 190.187,180.919 194.174,180.162 195.886 C 179.275 197.892,178.680 199.974,178.487 201.745 C 177.823 207.841,176.230 214.629,174.574 218.425 C 173.949 219.857,173.438 221.411,173.438 221.877 C 173.438 222.343,172.878 223.503,172.194 224.455 C 171.459 225.479,171.100 226.317,171.316 226.507 C 171.673 226.822,185.376 226.082,185.730 225.728 C 185.945 225.514,186.063 181.636,185.850 181.423 C 185.769 181.342,184.766 183.863,183.621 187.025 M216.560 184.538 C 216.095 185.749,216.727 187.798,218.362 190.388 C 219.498 192.187,220.075 193.604,220.277 195.089 C 220.436 196.258,220.782 197.476,221.047 197.796 C 221.428 198.254,221.429 198.537,221.050 199.143 C 220.508 200.011,223.264 213.454,224.673 216.814 C 225.364 218.461,225.374 218.695,224.811 220.042 C 224.007 221.966,224.646 223.249,227.447 225.335 C 228.572 226.172,229.918 227.318,230.439 227.882 L 231.386 228.906 239.359 228.906 L 247.332 228.906 245.994 227.051 C 245.258 226.030,239.933 218.164,234.161 209.570 C 228.390 200.977,222.781 192.645,221.697 191.056 C 220.613 189.467,219.551 187.895,219.336 187.561 C 217.403 184.562,216.802 183.908,216.560 184.538 M203.219 248.250 C 197.922 249.400,196.231 251.816,195.391 259.432 L 195.117 261.914 192.676 262.030 L 190.234 262.147 190.234 266.816 L 190.234 271.484 192.768 271.484 L 195.302 271.484 195.405 283.887 L 195.508 296.289 202.051 296.396 L 208.594 296.503 208.594 284.612 C 208.594 270.285,208.265 271.484,212.193 271.484 C 215.007 271.484,215.292 271.552,215.056 272.167 C 212.267 279.435,215.024 290.016,220.735 293.965 L 222.402 295.117 218.721 295.313 L 215.039 295.508 215.039 319.141 L 215.039 342.773 221.559 342.880 L 228.078 342.987 228.199 332.529 C 228.311 322.845,228.379 321.969,229.115 320.703 C 230.744 317.900,234.563 317.199,236.681 319.315 L 237.695 320.329 237.891 331.551 L 238.086 342.773 244.531 342.773 L 250.977 342.773 251.080 330.353 L 251.183 317.932 253.619 318.048 L 256.055 318.164 256.294 327.148 C 256.432 332.303,256.732 336.762,256.999 337.608 C 258.531 342.466,263.969 344.512,272.375 343.393 C 277.374 342.728,277.087 342.994,276.785 339.296 C 276.378 334.329,276.178 333.507,275.440 333.793 C 270.313 335.781,269.488 334.603,269.620 325.480 L 269.727 318.164 273.145 318.051 L 276.563 317.938 276.563 313.281 L 276.563 308.624 273.145 308.511 L 269.727 308.398 269.619 302.051 C 269.556 298.335,269.357 295.703,269.137 295.703 C 268.769 295.703,258.829 300.761,257.145 301.805 C 256.395 302.271,256.268 302.734,256.169 305.369 L 256.055 308.398 253.613 308.515 L 251.172 308.631 251.146 313.007 C 251.120 317.322,251.112 317.357,250.612 315.497 C 248.569 307.895,237.690 305.091,230.970 310.434 C 227.792 312.960,228.095 313.569,228.214 304.893 L 228.320 297.179 233.435 297.241 C 243.089 297.358,248.854 294.905,252.396 289.173 C 253.426 287.507,253.967 287.714,246.698 286.996 L 240.466 286.381 239.006 287.700 C 234.924 291.388,228.278 289.095,227.673 283.789 L 227.539 282.617 240.820 282.422 L 254.102 282.227 253.972 279.102 C 253.470 266.977,246.987 261.226,233.789 261.197 C 225.493 261.179,219.961 263.824,216.359 269.531 L 215.249 271.289 215.242 267.317 C 215.232 261.946,215.336 262.109,211.899 262.109 C 208.632 262.109,208.365 261.842,208.977 259.180 C 209.535 256.754,210.605 256.122,213.770 256.348 C 215.220 256.452,216.412 256.516,216.418 256.491 C 216.962 254.393,217.823 248.951,217.640 248.770 C 216.750 247.894,206.552 247.525,203.219 248.250 M139.941 248.696 C 139.558 248.851,139.453 254.018,139.453 272.689 L 139.453 296.484 149.805 296.484 C 155.498 296.484,160.162 296.616,160.169 296.777 C 160.176 296.938,160.226 298.652,160.280 300.586 L 160.378 304.102 166.908 304.209 L 173.438 304.316 173.438 294.541 L 173.438 284.766 163.664 284.766 L 153.891 284.766 153.914 266.980 C 153.927 257.197,153.832 249.024,153.703 248.816 C 153.466 248.431,140.869 248.322,139.941 248.696 M175.743 248.852 C 175.523 248.988,175.410 250.878,175.474 253.352 L 175.586 257.617 182.141 257.724 L 188.697 257.832 188.587 253.232 L 188.477 248.633 182.300 248.625 C 178.903 248.620,175.952 248.722,175.743 248.852 M175.391 279.297 L 175.391 296.484 182.031 296.484 L 188.672 296.484 188.672 279.297 L 188.672 262.109 182.031 262.109 L 175.391 262.109 175.391 279.297 M236.003 269.152 C 237.740 269.635,239.653 271.711,240.211 273.720 C 240.934 276.325,241.257 276.201,234.082 276.084 L 227.539 275.977 227.677 274.808 C 228.170 270.630,231.988 268.037,236.003 269.152 M120.886 295.792 C 120.781 296.065,120.741 306.748,120.797 319.531 L 120.898 342.773 139.453 342.773 L 158.008 342.773 158.116 337.012 L 158.224 331.250 146.889 331.250 L 135.555 331.250 135.453 313.379 L 135.352 295.508 128.214 295.401 C 122.717 295.319,121.032 295.409,120.886 295.792 M184.314 308.357 C 169.511 313.645,172.292 340.073,187.782 341.316 C 191.319 341.600,194.800 340.589,197.024 338.631 C 199.299 336.628,199.219 336.545,199.217 340.918 C 199.216 345.103,198.673 346.581,196.654 347.904 C 194.439 349.356,190.046 348.374,188.909 346.174 C 188.370 345.133,188.184 345.078,183.531 344.598 C 180.880 344.324,178.026 343.995,177.189 343.866 L 175.668 343.632 175.868 346.433 C 176.382 353.615,181.829 356.797,193.555 356.766 C 203.662 356.739,208.457 354.492,211.289 348.455 L 212.305 346.289 212.417 327.441 L 212.528 308.594 206.460 308.594 L 200.391 308.594 200.391 310.742 C 200.391 313.355,200.420 313.353,197.787 310.946 C 194.577 308.013,188.531 306.851,184.314 308.357 M160.387 309.473 C 160.250 309.956,160.224 317.646,160.331 326.563 L 160.524 342.773 166.981 342.881 L 173.438 342.988 173.438 325.791 L 173.438 308.594 167.038 308.594 C 160.736 308.594,160.634 308.607,160.387 309.473 M196.426 318.257 C 201.771 322.247,199.708 332.419,193.555 332.419 C 189.773 332.419,187.675 329.334,187.972 324.209 C 188.314 318.295,192.516 315.337,196.426 318.257 M223.175 348.709 C 217.999 349.717,219.456 357.813,224.813 357.813 C 230.275 357.813,231.409 349.739,226.096 348.676 C 224.859 348.429,224.599 348.432,223.175 348.709 M254.391 348.841 C 253.021 349.392,252.483 350.926,253.250 352.097 C 253.799 352.934,253.806 353.113,253.306 353.528 C 251.329 355.168,253.188 357.813,256.318 357.813 C 259.314 357.813,261.133 355.137,259.218 353.547 C 258.749 353.158,258.754 352.924,259.253 351.923 C 260.437 349.550,257.407 347.630,254.391 348.841 M266.428 349.391 C 265.918 349.933,265.178 350.480,264.782 350.606 C 264.331 350.749,264.063 351.205,264.063 351.830 C 264.063 352.848,264.322 352.888,266.113 352.151 C 266.729 351.897,266.797 352.164,266.797 354.841 L 266.797 357.813 267.981 357.813 L 269.165 357.813 269.055 353.223 C 268.932 348.080,268.395 347.297,266.428 349.391 M273.135 348.698 C 272.127 348.910,270.897 350.538,271.278 351.155 C 271.661 351.773,273.431 351.642,273.687 350.977 C 273.987 350.195,275.353 350.228,275.658 351.024 C 275.828 351.466,275.179 352.325,273.497 353.881 C 269.868 357.239,270.068 357.874,274.707 357.730 C 278.117 357.623,278.327 357.568,278.445 356.738 C 278.559 355.937,278.413 355.859,276.785 355.859 C 274.588 355.859,274.588 355.851,276.805 353.726 C 279.963 350.700,277.787 347.719,273.135 348.698 M216.324 352.215 C 216.212 355.570,215.487 357.105,214.962 355.097 C 214.822 354.562,214.534 354.332,214.175 354.470 C 213.863 354.590,213.271 354.688,212.859 354.688 C 211.884 354.688,211.907 355.497,212.919 356.783 C 213.593 357.641,214.043 357.813,215.610 357.813 C 218.736 357.813,219.263 357.097,219.460 352.590 L 219.624 348.828 218.031 348.828 L 216.437 348.828 216.324 352.215 M230.163 353.223 L 230.273 357.617 231.543 357.740 C 232.810 357.862,232.813 357.858,232.813 356.057 L 232.813 354.252 234.473 354.372 C 236.125 354.492,236.133 354.500,236.253 356.152 C 236.365 357.702,236.449 357.813,237.522 357.813 L 238.672 357.813 238.672 353.320 L 238.672 348.828 237.524 348.828 C 236.479 348.828,236.364 348.960,236.254 350.293 C 236.136 351.721,236.094 351.758,234.570 351.758 C 233.047 351.758,233.005 351.721,232.887 350.293 C 232.772 348.905,232.694 348.828,231.409 348.828 L 230.053 348.828 230.163 353.223 M239.929 353.223 L 240.039 357.617 241.211 357.617 C 242.347 357.617,242.389 357.552,242.578 355.469 L 242.773 353.320 244.075 355.078 C 244.791 356.045,245.508 357.069,245.670 357.354 C 245.849 357.671,246.481 357.822,247.298 357.744 L 248.633 357.617 248.743 353.223 L 248.854 348.828 247.474 348.828 L 246.094 348.828 246.094 350.977 C 246.094 353.636,245.882 353.634,244.026 350.962 C 242.711 349.068,242.392 348.828,241.182 348.828 L 239.818 348.828 239.929 353.223 M256.923 350.438 C 257.523 351.038,257.105 351.953,256.231 351.953 C 255.271 351.953,254.902 351.269,255.483 350.569 C 256.050 349.885,256.343 349.859,256.923 350.438 M226.094 351.250 C 227.361 352.517,226.426 355.859,224.805 355.859 C 223.573 355.859,223.047 355.099,223.047 353.320 C 223.047 351.541,223.573 350.781,224.805 350.781 C 225.256 350.781,225.836 350.992,226.094 351.250 M260.547 352.298 C 260.547 353.423,261.327 353.977,262.402 353.615 C 263.539 353.232,262.962 351.172,261.719 351.172 C 260.688 351.172,260.547 351.307,260.547 352.298 M257.227 355.078 C 257.227 355.794,256.992 356.088,256.346 356.180 C 255.386 356.316,254.841 355.478,255.230 354.465 C 255.626 353.433,257.227 353.925,257.227 355.078 M260.310 356.087 C 260.440 356.426,260.547 356.954,260.547 357.259 C 260.547 357.614,260.968 357.813,261.719 357.813 C 262.760 357.813,262.891 357.682,262.891 356.641 C 262.891 355.555,262.787 355.469,261.482 355.469 C 260.357 355.469,260.121 355.594,260.310 356.087 " stroke="none" fill="#fbfbfb" fill-rule="evenodd"></path></g></svg>